<svg width="188" height="162" viewBox="0 0 188 162" fill="none" xmlns="http://www.w3.org/2000/svg">
<g clip-path="url(#clip0_11217_30)">
<path d="M134.147 161.189H37.0831C37.0831 161.189 31.4586 154.418 47.1581 138.705C62.1886 123.681 82.4273 114.439 93.3829 110.548C106.413 105.934 134.167 99.1555 147.806 111.394C160.085 122.418 151.266 139.217 147.171 145.844C140.44 156.773 134.147 161.189 134.147 161.189Z" fill="#EF3B40"/>
<path d="M118.802 87.1624C151.075 88.746 168.153 115.647 158.501 134.513C149.266 152.575 138.761 161.189 138.761 161.189H178.672C186.242 161.189 189.382 154.984 186.242 149.947L99.9696 4.87651C96.1813 -1.42377 89.0004 -1.03469 85.0756 5.25194L35.9907 88.1453C35.9907 88.1453 83.1302 51.586 121.328 57.818C146.372 61.9203 118.802 87.1624 118.802 87.1624Z" fill="#EF3B40"/>
<path d="M117.382 87.0532C117.382 87.0532 130.536 71.6063 122.795 67.2787C116.993 64.0295 99.9014 66.7394 76.1474 79.0465C50.5709 92.2955 -10.6026 138.165 2.20272 161.401C2.20272 161.401 2.53719 147.653 20.3732 131.51C41.1511 112.684 60.366 97.0053 101.157 88.7051C106.843 87.5447 112.365 86.9303 117.382 87.0532Z" fill="#EF3B40"/>
</g>
<defs>
<clipPath id="clip0_11217_30">
<rect width="188" height="162" fill="white"/>
</clipPath>
</defs>
</svg>
