<svg width="1024" height="318" viewBox="0 0 1024 318" fill="none" xmlns="http://www.w3.org/2000/svg">
<path d="M384.129 177.929L436.771 14.0837H375.159L344.075 111.15L343.687 107.524L343.509 103.887L342.964 100.471L342.555 96.8448L341.779 93.3969L341.015 89.9489L340.071 86.5324L339.118 83.116L337.955 79.6575L336.854 76.4192L335.314 73.0027L333.983 69.7748L332.243 66.6936L330.535 63.4553L328.606 60.1855L326.72 57.1463L322.696 51.6129L318.357 46.4567L313.746 41.7301L308.61 37.1084L303.465 32.9059L297.931 29.0911L292.02 25.6747L285.89 22.4887L279.591 19.5857L273.125 17.0915L266.449 14.964L259.616 13.13L252.343 11.7675L245.101 10.4576L237.671 9.67158L230.23 9.31552L222.391 9.07422L214.583 9.31552L206.733 9.85001L198.748 10.7828L190.741 11.946L182.745 13.5076L174.549 15.3835L166.542 17.6682L158.336 20.3406L150.141 23.1702L142.103 26.6391L133.907 30.2547L125.869 34.2686L117.894 38.6598L110.055 43.2395L102.258 48.3748L94.6176 53.6987L87.3549 59.2426L80.3332 64.9543L73.6364 70.9069L67.1493 76.954L61.0499 83.3049L55.1496 89.7711L49.8047 96.4469L44.6381 103.123L39.681 109.819L35.3108 116.852L31.1292 123.769L27.304 130.79L23.8875 138.032L20.6283 145.116L17.9349 152.348L15.493 159.39L13.3655 166.632L11.8564 173.874L10.5359 180.948L9.60319 188.189L9.16302 195.264L8.99561 202.128L9.16302 209.024L9.98047 215.867L11.0809 222.501L12.4118 229.219L14.3087 235.675L16.8135 241.785L19.4859 248.104L22.7138 254.036L26.3294 259.747L30.1651 265.092L34.3152 270.039L38.7483 274.776L43.5062 279.157L48.4738 283.191L53.6195 287.038L59.1425 290.465L64.8646 293.671L70.8068 296.522L76.8853 299.016L83.3514 301.301L89.8491 303.219L96.4935 304.728L103.4 306.08L110.243 307.233L117.506 307.83L124.758 308.197H132.01L139.43 307.977L147.112 307.411L154.71 306.667L162.34 305.325L169.959 304.005L177.798 302.087L185.606 299.949L193.235 297.486L201.053 294.824L208.882 291.575L216.48 288.379L224.109 284.533L231.739 280.55L239.389 276.149V263.95L232.892 267.377L226.572 270.427L220.096 273.288L213.598 275.918L206.954 278.203L200.498 280.33L194.011 282.248L187.502 283.789L181.015 285.099L174.549 286.094L168.24 287.038L161.742 287.405L155.475 287.782H149.365L143.057 287.603L137.156 287.038L131.067 286.241L125.324 285.308L119.613 284.145L114.079 282.646L108.567 280.718L103.201 278.832L98.0865 276.495L93.1189 274.032L88.3191 271.213L83.7707 268.32L79.1699 265.092L74.9989 261.445L70.964 257.641L67.3275 253.638L63.7327 249.435L60.4839 244.855L57.2351 239.877L54.5627 234.606L52.0999 229.219L49.9934 223.675L48.2956 217.963L46.9542 212.199L45.969 206.33L45.4345 200.42L45.0572 194.289V188.189L45.4345 182.121L46.1576 175.792L47.3315 169.703L48.6624 163.383L50.3812 157.085L52.3199 150.776L54.7723 144.718L57.2351 138.43L60.2953 132.278L63.5441 126.2L66.9606 120.1L70.964 114.148L74.9989 108.279L79.3795 102.567L84.148 96.8451L89.1155 91.2907L94.4185 85.7467L99.9414 80.4124L105.664 75.2877L111.763 70.341L118.082 65.5621L124.57 60.9824L131.224 56.5912L138.089 52.5878L144.974 48.7521L152.038 45.3146L158.913 42.2754L165.903 39.3934L173.009 36.9725L180.062 34.6354L187.125 32.7385L194.199 31.0093L201.053 29.8774L208.106 28.7666L214.971 27.9908L221.825 27.6033H228.522L235.176 27.7605L241.664 28.148L248.14 28.9238L254.46 30.0661L260.517 31.3971L266.638 33.1578L272.36 35.0336L278.113 37.3288L283.626 39.7916L288.981 42.6946L293.938 45.7024L298.696 49.1398L303.465 52.9651L307.657 56.958L311.87 61.129L315.695 65.7298L319.08 70.7183L321.951 75.099L324.425 79.4797L326.563 83.8708L328.428 88.6392L329.969 93.2086L331.279 97.9665L332.243 102.955L333.186 107.902L333.773 113.026L333.983 118.214L334.182 123.548L333.983 128.893L333.596 134.427L333.008 139.929L332.244 145.462L331.279 151.184L329.969 157.315L328.23 163.383L326.333 169.325L324.226 175.027L321.952 180.591L319.259 186.093L316.419 191.449L313.359 196.825L309.953 201.929L306.316 207.106L302.512 212.053L298.309 216.999L293.719 221.747L288.982 226.547L283.993 231.137L278.649 235.675L281.143 236.272L283.627 236.671L286.142 237.006L288.762 237.415L291.644 237.824L294.505 238.191H297.366H300.206H304.409L308.401 237.992L312.604 237.604L316.607 236.818L319.479 236.274L322.518 235.676L325.39 234.943L328.23 233.979L330.934 233.036L333.774 231.862L336.436 230.751L339.119 229.389L341.781 228.068L344.275 226.737L346.738 225.207L349.232 223.509L351.716 221.958L353.979 220.218L356.295 218.353L358.591 216.435L360.655 214.517L362.783 212.442L364.858 210.325L366.807 208.24L368.683 205.945L370.59 203.649L372.288 201.365L373.818 198.902L375.579 196.408L376.889 193.903L378.387 191.451L379.739 188.789L380.903 186.095L382.024 183.454L383.166 180.593L384.129 177.929Z" fill="#E60012"/>
<path d="M468.025 13.6426L396.732 238.192H458.323L486.155 150.027L486.539 149.474V149.091L487.875 144.884L489.041 142.259L490.546 139.588L492.05 137.086L493.8 134.599L495.504 132.281L497.577 130.208L499.88 128.274L502.182 126.416L504.485 124.697L507.141 123.146L509.797 122.026L512.483 120.859L515.323 119.907L518.378 119.155L521.464 118.617L524.519 118.418L526.008 118.617L527.359 118.955L528.679 119.324L530.015 119.907L531.197 120.644L532.287 121.427L533.469 122.179L534.375 123.146L535.327 124.297L536.14 125.249L536.862 126.585L537.461 127.736L537.86 129.056L538.229 130.392L538.428 131.727V133.078L538.229 135.765L537.645 138.237L505.238 238.191H567.274L603.827 124.297L604.426 122.593L604.978 120.858L605.331 118.955L605.546 117.036L606.098 114.917L606.528 112.645L606.666 110.204L606.881 107.902L606.666 104.279L606.098 100.64L605.331 97.4318L604.21 94.162L602.691 91.1069L600.971 88.2515L598.899 85.3961L596.565 82.9552L594.278 80.6064L591.622 78.5339L588.782 76.7838L585.727 75.0951L582.488 73.9591L579.233 73.0073L575.81 72.2245L572.171 71.8409H570.452L568.947 71.4573H568.195H567.612H567.274H566.797L562.069 71.6412L557.479 72.0248L553.119 72.5931L548.513 73.3914L544.169 74.3125L539.917 75.6635L535.756 76.953L531.581 78.7031L527.543 80.6067L523.69 82.5257L519.898 84.7977L516.306 87.1158L512.667 89.7717L509.428 92.4582L506.22 95.4979L503.119 98.5375L529.662 13.6427L468.025 13.6426ZM202.38 70.3516L198.358 70.4743L194.197 70.7046L190.175 71.0575L186.168 71.6258L182.162 72.0251L178.17 72.8233L174.547 73.5598L170.878 74.312L167.301 75.4634L163.847 76.6148L160.608 77.7815L157.353 79.1018L154.129 80.4066L151.059 82.1414L148.004 83.6919L145.179 85.396L142.309 87.3149L139.438 89.1878L136.767 91.1068L134.31 93.1946L131.639 95.3285L129.306 97.6005L126.865 99.673L124.577 101.991L122.49 104.447L120.156 107.134L117.899 109.974L115.612 113.029L113.325 116.483L111.022 120.106L169.389 126.416L171.845 122.992L174.317 119.906L177.019 117.435L179.49 115.332L181.409 114.15L183.313 112.829L185.815 111.525L188.655 110.342L191.695 109.452L194.765 108.669L197.79 108.131L201.059 107.702H204.483L207.691 107.901L209.626 108.131L211.529 108.669L213.418 109.022L215.536 109.82L217.639 110.588L219.727 111.525L221.83 112.461L223.749 113.398L223.918 115.332L224.118 117.236L223.918 119.155L223.749 121.027L223.366 122.992L222.797 124.696L221.999 126.416L221.231 128.151L215.351 130.192L209.426 131.973L203.669 133.462L197.973 134.783L194.765 135.535L190.574 136.717L185.416 137.853L179.49 139.004L176.45 139.756L173.395 140.309L169.957 140.908L166.318 141.66L162.526 142.259L158.719 142.981L154.497 143.763L150.322 144.516L142.876 146.036L136.014 147.755L129.566 149.674L123.625 151.746L118.267 154.049L113.324 156.551L108.749 159.038L104.712 161.878L101.304 164.933L98.0953 168.004L94.9789 171.228L92.1542 174.666L91.0029 176.57L89.6673 178.504L88.7308 180.393L87.564 182.496L86.5968 184.737L85.6604 186.917L84.8775 189.389L84.156 191.876L83.5264 194.286L83.2041 196.604L82.8205 198.891L82.606 201.194V203.267L82.8205 205.354L82.9895 207.458L83.3582 209.545L83.9264 211.464L84.5097 213.368L85.0779 215.318L85.8763 217.175L86.8281 218.956L87.7185 220.599L88.87 222.149L90.0366 223.899L91.3722 225.434L92.7385 226.923L94.2123 228.459L95.9471 229.794L97.6818 231.145L99.3859 232.266L101.489 233.463L103.562 234.354L105.895 235.306L108.367 236.042L111.222 236.672L114.077 237.255L117.332 237.593L120.955 237.992L124.762 238.176H128.754H134.096L139.239 237.992L144.566 237.409L149.724 236.457L154.713 235.475L159.656 234.185L164.385 232.619L168.837 230.915L171.493 229.994L173.934 228.797L176.635 227.476L179.491 225.957L183.697 223.684L187.873 221.167L192.049 218.357L196.286 214.919L195.702 216.776L195.334 218.526L195.118 220.215V222.149V225.204L195.702 228.275L196.101 229.61L196.639 230.915L197.207 232.266L197.975 233.617V233.986H209.074H239.378H251.936H257.462L256.91 232.619L256.541 231.146L256.203 229.38L255.973 227.691L255.804 225.788L255.973 223.9L256.203 221.965L256.756 220.046L262.068 203.067L266.827 188.038L271.248 174.482L275.04 162.631L278.478 152.146L281.349 142.981L283.99 134.998L286.139 128.151L286.707 126.186L287.029 124.482L287.429 122.594L287.628 120.644L287.812 117.436V115.332L287.628 111.356L287.029 107.319L286.293 103.496L284.957 99.9195L283.453 96.4346L281.488 93.0112L279.415 89.9562L276.959 87.1161L274.303 84.2607L271.433 81.9426L268.362 79.6552L265.138 77.7823L261.684 76.2318L258.061 74.9116L254.269 73.9597L250.247 73.2075L246.409 72.5936L242.05 72.0254L237.291 71.4728L232.301 71.0586L227.189 70.7057L221.831 70.4754L216.289 70.3527H210.579H206.572L202.38 70.3516ZM929.573 70.3516L925.582 70.4743L921.36 70.7046L917.369 71.0575L913.347 71.4717L909.34 72.0243L905.364 72.8225L901.557 73.559L898.118 74.5262L894.479 75.4627L891.071 76.614L887.847 77.7807L884.347 79.101L881.323 80.4059L878.283 81.9411L875.228 83.6911L872.373 85.3952L869.502 87.1146L866.616 89.0029L864.006 90.9371L861.458 93.0096L858.848 95.0975L856.376 97.4309L854.058 99.5341L851.756 101.791L849.468 104.447L847.196 107.133L844.924 109.973L842.821 113.028L840.534 116.482L838.2 120.105L896.414 126.415L899.085 122.991L901.557 119.906L903.997 117.434L906.699 115.331L908.373 114.149L910.338 112.829L912.993 111.524L915.818 110.342L918.689 109.451L921.744 108.668L924.998 108.131L928.238 107.701H931.477L934.9 107.9L938.539 108.668L942.714 109.82L944.864 110.588L946.921 111.356L949.024 112.261L950.928 113.244L951.158 115.147V117.02V119.154L950.928 121.027L950.544 122.992L949.961 124.696L949.209 126.416L948.456 128.15L942.362 130.192L936.636 131.973L930.909 133.462L925.199 134.782L921.744 135.534L917.569 136.717L912.61 137.853L906.7 139.004L903.645 139.756L900.421 140.309L896.967 140.908L893.528 141.66L889.69 142.259L885.683 142.98L881.707 143.763L877.516 144.515L870.055 146.035L863.024 147.755L856.715 149.674L850.82 151.746L845.293 154.049L840.288 156.551L835.959 159.038L831.937 161.878L828.299 164.933L825.059 168.004L822.204 171.227L819.318 174.666L817.998 176.57L816.877 178.504L815.695 180.392L814.774 182.496L813.807 184.737L812.824 186.917L811.919 189.388L811.105 191.875L810.736 194.286L810.184 196.604L809.984 198.891L809.769 201.194V203.266L809.984 205.354L810.184 207.457L810.567 209.545L810.92 211.464L811.519 213.368L812.302 215.317L813.069 217.175L814.005 218.956L814.957 220.598L815.909 222.149L817.045 223.899L818.58 225.434L819.885 226.923L821.451 228.458L822.956 229.794L824.706 231.145L826.609 232.266L828.467 233.463L830.816 234.353L833.057 235.305L835.513 236.042L838.2 236.671L841.27 237.255L844.509 237.593L848.132 237.992L851.755 238.176H855.962H861.089L866.431 237.992L871.59 237.409L876.732 236.457L881.906 235.474L886.65 234.185L891.439 232.619L895.999 230.915L898.685 229.994L901.157 228.796L903.844 227.476L906.699 225.956L910.675 223.684L915.096 221.167L919.257 218.357L923.478 214.918L922.91 216.776L922.511 218.526L922.327 220.215L922.112 222.149L922.327 225.204L922.91 228.274L923.279 229.61L923.878 230.915L924.43 232.266L925.198 233.617V233.985H936.052H966.555H979.159H984.701L984.149 232.619L983.565 230.915L983.335 229.226L982.951 227.353V225.435L983.166 223.5L983.335 221.75L983.78 220.046L989.276 203.067L994.035 188.038L998.272 174.482L1002.08 162.631L1005.29 152.146L1008.16 142.981L1010.63 134.998L1012.92 128.151L1013.88 124.482L1014.62 120.644L1014.8 117.435L1015 115.332L1014.8 111.356L1014.27 107.319L1013.28 103.496L1012.15 99.9192L1010.63 96.4344L1008.73 93.0109L1006.64 89.956L1004.15 87.1159L1001.45 84.2605L998.624 81.9424L995.569 79.655L992.299 77.7821L988.707 76.2315L985.084 74.9113L981.461 73.9595L977.439 73.2073L973.432 72.5934L969.057 72.0251L964.497 71.4726L959.523 71.0583L954.35 70.7054L949.023 70.4751L943.496 70.3525H937.739H933.779L929.573 70.3516ZM648.638 71.4569L611.84 185.566L611.21 187.454L610.888 189.389L610.519 191.093L610.305 192.981L609.736 195.253L609.368 197.54L608.999 199.643V201.931L609.199 205.569L609.736 209.023L610.519 212.447L611.671 215.686L612.991 218.695L614.71 221.75L616.798 224.467L618.87 226.923L621.357 229.226L624.044 231.314L626.884 233.233L629.97 234.737L633.209 235.919L636.448 236.81L639.887 237.593L643.464 237.823L645.03 238.192H646.918H647.332H647.685H648.253H648.437H649.067H653.626L658.17 237.823L662.561 237.255L666.936 236.272L671.342 235.305L675.549 234.184L679.739 232.619L683.915 231.145L687.937 229.226L691.76 227.338L695.567 225.035L699.374 222.732L702.798 220.214L706.267 217.605L709.691 214.703L712.73 211.663L705.653 233.969H766.707L819.501 71.4566H757.542L729.126 159.79L728.773 160.926L727.606 164.764L726.44 167.574L725.15 170.291L723.63 172.762L721.865 175.219L719.992 177.537L717.858 179.609L715.801 181.743L713.498 183.447L711.027 185.167L708.325 186.702L705.653 187.807L702.798 189.004L699.958 189.91L697.072 190.693L694.032 191.092L690.839 191.445L689.457 191.215L688.137 190.846L686.786 190.463L685.451 189.91L684.315 189.388L683.179 188.575L682.211 187.807L681.229 186.916L680.292 185.719L679.556 184.736L678.988 183.447L678.419 182.295L677.867 180.96L677.652 179.409L677.438 178.074L677.269 176.569L677.652 174.082L678.221 171.58L710.229 71.4564L648.638 71.4569ZM212.297 158.424L209.426 168.188L208.474 170.828L207.338 173.346L206.187 175.802L205.066 178.074L203.669 180.392L202.38 182.496L200.845 184.553L199.309 186.318L197.79 188.038L196.285 189.742L194.351 191.215L192.447 192.965L190.574 194.516L188.287 195.836L185.815 197.156L183.313 198.507L181.409 199.444L179.49 200.212L177.403 200.995L175.269 201.563L173.196 202.116L171.108 202.515L166.702 203.267L162.527 203.651H160.224L157.921 203.451L156.018 203.067L154.329 202.714L152.809 202.116L151.443 201.363L150.322 200.212L148.987 198.892L148.219 197.725L147.451 196.405L146.883 195.054L146.5 193.534L146.3 191.876V190.325L146.699 188.575L147.282 186.687L147.835 185.183L148.756 183.647L149.723 182.297L150.706 180.746L152.041 179.41L153.346 178.075L154.713 176.954L156.202 175.803L157.921 174.851L160.055 173.715L162.527 172.763L165.167 171.581L171.676 169.493L179.49 167.206L181.409 166.638L183.697 166.085L187.32 165.317L190.958 164.396L194.519 163.383L198.189 162.631L201.796 161.694L205.22 160.527L208.889 159.576L212.297 158.424ZM939.49 158.424L936.635 168.188L935.3 171.826L933.78 175.403L931.83 178.842L929.788 182.112L927.439 185.182L924.998 188.038L922.112 190.693L919.257 193.165L916.002 195.253L912.794 197.356L909.34 199.075L905.579 200.626L901.925 201.747L897.887 202.714L893.896 203.45L889.69 203.864H887.218H885.13L883.242 203.45L881.522 202.882L880.003 202.314L878.652 201.362L877.332 200.211L876.18 198.89L875.428 197.724L874.63 196.403L874.108 195.052L873.708 193.533L873.539 191.875V190.324L873.892 188.574L874.476 186.686L875.028 185.181L875.795 183.646L876.732 182.295L877.883 180.745L879.05 179.409L880.385 178.073L881.905 176.953L883.425 175.801L885.129 174.85L887.217 173.714L889.52 172.762L892.36 171.58L898.685 169.492L906.698 167.204L908.602 166.636L910.859 166.084L914.497 165.316L918.12 164.395L921.743 163.381L925.366 162.629L928.805 161.693L932.428 160.526L936.051 159.574L939.49 158.424Z" fill="#F9F9F9"/>
<path d="M630.342 293.101V286.101H647.896V300.93V302.701V308.538H641.399V306.086L638.925 307.228L636.263 308.192L634.89 308.538L633.392 308.79L632.061 308.926H630.719L627.471 308.79L624.63 308.35L623.299 307.972L621.958 307.406L620.805 306.862L619.663 306.275L618.5 305.53L617.378 304.723L616.414 304.01L615.45 303.025L614.727 301.862L613.93 300.929L613.197 299.776L612.621 298.466L611.447 295.972L610.671 293.101L610.304 290.46L610.137 287.4L610.304 284.35L610.88 281.332L611.666 278.586L612.83 275.913L613.531 274.771L614.328 273.66L615.093 272.549L616.036 271.585L617 270.589L618.163 269.646L619.285 268.881L620.616 268.316L622.513 267.383L624.808 266.576L627.47 266.199H630.132H632.06L633.779 266.44L635.288 266.576L636.849 266.974L638.348 267.383L639.669 267.886L640.832 268.714L641.985 269.447L642.917 270.223L643.871 271.219L644.636 272.099L645.401 273.294L645.998 274.447L646.564 275.547L646.92 276.889L647.329 278.429L640.454 279.771L639.878 278.199L639.113 276.889L638.149 275.778L637.006 274.772L635.508 274.027L633.957 273.461L632.238 273.105H630.131H628.821L627.669 273.294L626.338 273.661L625.195 274.028L624.043 274.604L623.099 275.17L622.146 275.914L621.36 276.721L620.427 277.885L619.83 279.006L619.285 280.169L618.866 281.469L618.499 282.999L618.331 284.351L618.164 285.86V287.6V289.098L618.331 290.66L618.499 291.959L618.866 293.469L619.285 294.82L619.83 295.973L620.615 297.137L621.36 298.258L622.146 299.012L623.1 299.777L624.043 300.343L625.196 300.93L626.338 301.308L627.669 301.675L628.822 301.863H630.132L632.238 301.675L633.957 301.517L635.508 301.308L637.007 300.93L638.149 300.343L639.291 299.777L640.287 299.012L641.398 298.258V293.102L630.342 293.101ZM562.63 287.777V286.446L562.829 284.895L563.206 283.554L563.385 282.024L564.527 279.005L565.89 276.155L566.634 274.771L567.42 273.462L568.353 272.351L569.495 271.219L570.658 270.223L571.801 269.28L573.121 268.536L574.263 267.76L576.37 267.184L578.466 266.576L580.541 266.199H583.046H585.362L587.416 266.576L589.522 267.184L591.451 267.886L593.117 268.714L594.846 269.824L596.418 270.967L597.896 272.549L599.08 274.027L600.202 275.547L601.166 277.255L602.13 279.162L602.696 281.332L603.063 283.417L603.461 285.44V287.599V289.894L603.063 291.958L602.696 294.054L602.13 295.972L601.166 297.88L600.202 299.619L599.227 301.307L597.896 302.837L596.565 304.157L594.846 305.331L593.348 306.473L591.451 307.406L589.522 307.972L587.416 308.538L585.362 308.925H583.046H580.929L578.833 308.538L576.747 307.972L574.871 307.406L572.932 306.473L571.224 305.53L569.694 304.157L568.353 302.837L567.053 301.307L565.89 299.776L564.926 298.068L564.15 296.171L563.594 294.254L563.028 292.199L562.829 290.041L562.63 287.777ZM571.046 287.599L571.224 290.261L571.8 292.724L572.167 294.055L572.733 295.218L573.289 296.381L574.075 297.303L574.872 298.257L575.804 299.221L576.747 299.955L577.89 300.583L579.053 301.108L580.164 301.516L581.705 301.674L583.046 301.862L584.576 301.674L585.939 301.516L587.248 301.108L588.38 300.583L589.523 299.955L590.508 299.221L591.241 298.257L592.195 297.303L592.782 296.172L593.348 295.04L593.882 293.866L594.281 292.724L594.847 290.041L595.077 287.4L594.847 284.706L594.281 282.244L593.882 280.923L593.348 279.77L592.782 278.827L592.195 277.674L591.45 276.721L590.507 275.914L589.522 275.169L588.38 274.603L587.248 274.027L585.938 273.66L584.576 273.461L583.045 273.294L581.515 273.461L580.163 273.66L578.832 274.027L577.701 274.603L576.747 275.169L575.594 275.914L574.871 276.888L574.075 277.884L573.289 278.827L572.733 279.948L572.167 281.08L571.8 282.244L571.224 284.895L571.046 287.599ZM444.761 308.349V266.765H451.835L470.909 294.652V266.765H478.549V308.349H471.076L452.39 281.332V308.349H444.761ZM400.158 308.349V266.765H408.374V283.197H426.85V266.765H434.847V308.349H426.85V290.261H408.374V308.349H400.158ZM318.738 308.349V266.765H348.648V273.859H326.912V282.998H347.128V290.041H326.912V301.307H349.434V308.349H318.738ZM664.664 308.349V290.827L649.982 266.765H659.519L668.867 283.197L678.215 266.765H687.563L672.86 291.026V308.349H664.664ZM533.831 308.349V267.184H542.058V301.307H560.356V308.349H533.831ZM486.534 287.777V286.446L486.723 284.895L486.922 283.554L487.309 282.023L488.274 279.005L489.605 276.155L490.548 274.771L491.313 273.461L492.266 272.35L493.43 271.218L494.331 270.223L495.704 269.28L496.846 268.535L498.167 267.76L500.084 267.183L502.18 266.576L504.486 266.199H506.938H509.223L511.329 266.576L513.394 267.183L515.322 267.885L517.062 268.713L518.749 269.824L520.311 270.967L521.799 272.549L522.962 274.027L524.073 275.546L525.058 277.255L525.803 279.162L526.599 281.331L526.955 283.417L527.364 285.439V287.598V289.894L526.955 291.958L526.599 294.054L525.803 295.972L525.058 297.879L524.073 299.619L522.962 301.306L521.799 302.836L520.311 304.157L518.749 305.331L517.062 306.473L515.322 307.406L513.394 307.972L511.329 308.538L509.223 308.925H506.938H504.853L502.558 308.538L500.671 307.972L498.753 307.406L496.846 306.473L495.106 305.53L493.597 304.157L492.266 302.836L490.925 301.306L489.803 299.776L488.818 298.068L488.095 296.171L487.309 294.253L486.922 292.199L486.534 290.04L486.534 287.777ZM494.929 287.599L495.107 290.261L495.705 292.723L496.082 294.054L496.658 295.218L497.193 296.381L498.021 297.303L498.754 298.257L499.655 299.221L500.672 299.954L501.615 300.583L502.946 301.107L504.078 301.516L505.629 301.673L506.939 301.862L508.458 301.673L509.8 301.516L511.131 301.107L512.284 300.583L513.395 299.954L514.401 299.221L515.145 298.257L515.91 297.303L516.686 296.171L517.23 295.039L517.817 293.866L518.184 292.723L518.75 290.041L518.949 287.4L518.75 284.706L518.184 282.243L517.817 280.923L517.23 279.77L516.686 278.827L516.13 277.674L515.145 276.72L514.4 275.913L513.394 275.169L512.283 274.603L511.131 274.027L509.8 273.66L508.458 273.461L506.939 273.294L505.409 273.461L504.078 273.66L502.736 274.027L501.615 274.603L500.462 275.169L499.508 275.913L498.754 276.888L497.79 277.884L497.192 278.827L496.658 279.948L496.082 281.08L495.704 282.243L495.107 284.895L494.929 287.599ZM383.725 293.101L392.119 295.574L391.742 297.303L391.009 298.854L390.422 300.164L389.646 301.516L388.682 302.837L387.749 303.748L386.785 304.723L385.642 305.708L384.5 306.473L383.169 307.228L381.838 307.825L380.497 308.192L378.977 308.538L377.458 308.789L375.959 308.925H374.198H371.924L369.996 308.789L368.109 308.192L366.191 307.605L364.473 306.861L362.785 305.896L361.213 304.723L359.914 303.444L358.593 301.861L357.441 300.164L356.466 298.256L355.533 296.38L354.946 294.253L354.548 291.958L354.17 289.893V287.598L354.359 285.439L354.548 283.196L354.946 281.079L355.722 279.004L356.466 277.087L357.441 275.169L358.594 273.46L359.914 271.983L361.434 270.589L362.953 269.447L364.651 268.535L366.37 267.56L368.309 266.973L370.415 266.575L372.49 266.197H374.607H376.672L378.391 266.439L380.319 266.763L381.838 267.382L383.547 267.885L384.888 268.713L386.429 269.645L387.529 270.589L389.101 272.098L390.233 273.858L391.166 275.913L392.119 278.197L383.358 280.325L382.96 278.826L382.205 277.474L381.272 276.154L380.119 275.168L378.788 274.445L377.458 273.858L375.959 273.46L374.198 273.292L373.066 273.46H371.924L370.761 273.858L369.818 274.214L368.853 274.602L367.921 275.168L367.166 275.775L366.37 276.719L365.426 277.882L364.651 279.003L364.085 280.324L363.54 281.885L363.141 283.195L362.785 284.704L362.597 286.234V287.775V289.253L362.785 290.825L363.141 292.198L363.54 293.665L364.085 295.038L364.651 296.169L365.426 297.48L366.37 298.465L367.166 299.219L367.921 299.953L368.853 300.581L369.818 300.927L370.761 301.304L371.735 301.672L372.867 301.86H373.989L375.718 301.672L377.269 301.304L378.788 300.749L380.119 299.774L381.272 298.464L382.205 296.934L382.96 295.215L383.725 293.101ZM290.473 308.349V273.859H278.641V266.764H310.71V273.859H298.69V308.349H290.473Z" fill="#F9F9F9"/>
</svg>
