<svg width="30" height="30" viewBox="0 0 30 30" fill="none" xmlns="http://www.w3.org/2000/svg">
<path d="M0.967773 22.0821C0.967773 19.4273 0.967773 18.1013 1.79264 17.2765C2.61751 16.4516 3.94349 16.4516 6.59827 16.4516H23.4897C26.1445 16.4516 27.4705 16.4516 28.2954 17.2765C29.1203 18.1013 29.1203 19.4273 29.1203 22.0821C29.1203 24.7369 29.1203 26.0628 28.2954 26.8877C27.4705 27.7126 26.1445 27.7126 23.4897 27.7126H6.59827C3.94349 27.7126 2.61751 27.7126 1.79264 26.8877C0.967773 26.0628 0.967773 24.7369 0.967773 22.0821ZM0.967773 6.59821C0.967773 3.94343 0.967773 2.61745 1.79264 1.79258C2.61751 0.967712 3.94349 0.967712 6.59827 0.967712H23.4897C26.1445 0.967712 27.4705 0.967712 28.2954 1.79258C29.1203 2.61745 29.1203 3.94343 29.1203 6.59821C29.1203 9.25299 29.1203 10.5789 28.2954 11.4038C27.4705 12.2287 26.1445 12.2287 23.4897 12.2287H6.59827C3.94349 12.2287 2.61751 12.2287 1.79264 11.4038C0.967773 10.5789 0.967773 9.25299 0.967773 6.59821Z" stroke="#F9F9F9" stroke-width="1.5"/>
<path d="M13.6365 6.59821H23.4899M6.59839 6.59821H9.41364M13.6365 22.0821H23.4899M6.59839 22.0821H9.41364" stroke="#F9F9F9" stroke-width="1.5" stroke-linecap="round"/>
</svg>
