<svg width="20" height="20" viewBox="0 0 20 20" fill="none" xmlns="http://www.w3.org/2000/svg">
<g clip-path="url(#clip0_4783_2042)">
<path d="M17.3786 16.7593C15.539 18.748 12.8995 19.9503 10.1921 19.9955C8.93562 20.0181 7.75144 19.8237 6.63957 19.4124C5.58195 19.0237 4.62827 18.4859 3.77856 17.8034L1.58195 20L2.63371e-05 18.4181L2.19664 16.2215C1.50963 15.3718 0.976297 14.409 0.587597 13.3469C0.158218 12.1898 -0.0316121 10.9695 2.63371e-05 9.6904C0.0813823 6.98757 1.31528 4.36158 3.32206 2.54463C5.19777 0.849718 7.4215 0 10.0023 0H20.0045V10.0023C20.0045 12.6192 19.1322 14.8701 17.3831 16.7638L17.3786 16.7593ZM9.99777 17.7763C12.6644 17.7763 14.8339 16.6282 16.5017 14.3277C17.3921 13.1028 17.7763 11.5751 17.7763 10.061V2.22373H10.3006C8.32997 2.22373 6.35031 2.82034 4.87686 4.13107C2.89268 5.89831 2.02037 8.14463 2.25991 10.8746C2.39099 12.3299 2.97856 13.7446 3.91867 14.8655C5.54127 16.809 7.57065 17.7808 10.0023 17.7808L9.99777 17.7763ZM9.34692 14.9153L15.0961 9.77627C15.2814 9.60904 15.3356 9.41017 15.2633 9.17966C15.191 8.94915 15.0238 8.81356 14.7616 8.7774L10.2599 8.33446L12.9537 4.64181C13.026 4.55141 13.0622 4.45198 13.0486 4.34802C13.0396 4.24859 12.9989 4.14915 12.9221 4.05876C12.8317 3.96836 12.7232 3.91864 12.6012 3.91864C12.4791 3.91864 12.3752 3.96384 12.2803 4.05876L6.55822 9.19774C6.37291 9.36497 6.31867 9.56384 6.39099 9.79435C6.4633 10.0249 6.63053 10.1605 6.89268 10.1966L11.3944 10.6395L8.67347 14.3322C8.61924 14.4226 8.59212 14.522 8.59212 14.626C8.59212 14.7299 8.63731 14.8249 8.73223 14.9153C8.82715 15.0056 8.92658 15.0554 9.03957 15.0554C9.15257 15.0554 9.252 15.0102 9.34692 14.9153Z" fill="#F9F9F9"/>
</g>
<defs>
<clipPath id="clip0_4783_2042">
<rect width="20" height="20" fill="white"/>
</clipPath>
</defs>
</svg>
