<svg width="20" height="20" viewBox="0 0 20 20" fill="none" xmlns="http://www.w3.org/2000/svg">
<g clip-path="url(#clip0_4783_2035)">
<path d="M2.24958 0C1.00594 0 0 1.00594 0 2.24958V15.7513C0 16.9949 1.00594 18.0008 2.24958 18.0008H8.05178C8.10272 17.7419 8.20034 17.4915 8.33192 17.2581L8.76486 16.5025H2.24958C1.83362 16.5025 1.4983 16.1672 1.4983 15.7513V2.24958C1.4983 1.83362 1.83362 1.4983 2.24958 1.4983H15.7513C16.1672 1.4983 16.5025 1.83362 16.5025 2.24958V10.0042C16.562 10.0849 16.6171 10.1698 16.6681 10.2589L18.0008 12.5891V2.24958C18.0008 1.00594 16.9949 0 15.7513 0H2.24958ZM14.4992 9.00255C14.4992 8.58659 14.1638 8.25127 13.7479 8.25127H8.24703C7.83107 8.25127 7.49576 8.58659 7.49576 9.00255C7.49576 9.41851 7.83107 9.75382 8.24703 9.75382H12.7122C13.1834 9.27419 13.8243 9.00255 14.4949 9.00255H14.4992ZM11.337 12.0034H8.25127C7.83531 12.0034 7.5 12.3387 7.5 12.7547C7.5 13.1706 7.83531 13.5059 8.25127 13.5059H10.4796L11.337 12.0076V12.0034ZM4.74958 6.25212C5.30136 6.25212 5.75127 5.80645 5.75127 5.25042C5.75127 4.6944 5.3056 4.24873 4.74958 4.24873C4.19355 4.24873 3.74788 4.6944 3.74788 5.25042C3.74788 5.80645 4.19355 6.25212 4.74958 6.25212ZM8.25127 4.5034C7.83531 4.5034 7.5 4.83871 7.5 5.25467C7.5 5.67063 7.83531 6.00594 8.25127 6.00594H13.7521C14.1681 6.00594 14.5034 5.67063 14.5034 5.25467C14.5034 4.83871 14.1681 4.5034 13.7521 4.5034H8.25127ZM4.74958 10.0042C5.30136 10.0042 5.75127 9.55857 5.75127 9.00255C5.75127 8.44652 5.3056 8.00085 4.74958 8.00085C4.19355 8.00085 3.74788 8.44652 3.74788 9.00255C3.74788 9.55857 4.19355 10.0042 4.74958 10.0042ZM4.74958 13.7564C5.30136 13.7564 5.75127 13.3107 5.75127 12.7547C5.75127 12.1986 5.3056 11.753 4.74958 11.753C4.19355 11.753 3.74788 12.1986 3.74788 12.7547C3.74788 13.3107 4.19355 13.7564 4.74958 13.7564ZM14.1087 10.0594C14.7666 9.88116 15.4584 10.1698 15.798 10.7598L19.8005 17.7589C20.0042 18.1197 20.0467 18.5272 19.9448 18.8964C19.7708 19.5501 19.1766 20.0042 18.5017 20.0042H10.4966C10.0849 20.0042 9.71138 19.8387 9.43973 19.5628C8.9601 19.0832 8.86248 18.3447 9.19779 17.7547L13.2003 10.7555C13.3956 10.4117 13.7224 10.157 14.1087 10.0552V10.0594ZM14.9958 12.5085C14.9958 12.2326 14.7708 12.0076 14.4949 12.0076C14.219 12.0076 13.9941 12.2326 13.9941 12.5085V15.5093C13.9941 15.7852 14.219 16.0102 14.4949 16.0102C14.7708 16.0102 14.9958 15.7852 14.9958 15.5093V12.5085ZM14.4992 18.5102C14.9151 18.5102 15.2504 18.1749 15.2504 17.7589C15.2504 17.343 14.9151 17.0076 14.4992 17.0076C14.0832 17.0076 13.7479 17.343 13.7479 17.7589C13.7479 18.1749 14.0832 18.5102 14.4992 18.5102Z" fill="#F9F9F9"/>
</g>
<defs>
<clipPath id="clip0_4783_2035">
<rect width="20" height="20" fill="white"/>
</clipPath>
</defs>
</svg>
