<svg width="34" height="37" viewBox="0 0 34 37" fill="none" xmlns="http://www.w3.org/2000/svg">
<path d="M18.5 35L27.5 26M29 21.5C28.4066 21.5 27.8266 21.6759 27.3333 22.0056C26.8399 22.3352 26.4554 22.8037 26.2283 23.352C26.0013 23.9 25.9419 24.5033 26.0576 25.0852C26.1734 25.6672 26.459 26.2017 26.8787 26.6213C27.2982 27.0408 27.8328 27.3266 28.4147 27.4423C28.9966 27.5581 29.5998 27.4987 30.148 27.2716C30.6962 27.0445 31.1647 26.66 31.4943 26.1667C31.824 25.6733 32 25.0933 32 24.5M12.4999 35H3C2.44772 35 2 34.5522 2 34V2.99999C2 2.4477 2.44772 1.99998 3 1.99998H28C28.5522 1.99998 29 2.4477 29 2.99998V17M2 20H23M2 27.4999H16.9999M2 12.5H29M23.75 7.99998V7.99998C24.1642 7.99998 24.5 7.66418 24.5 7.24998V7.24998C24.5 6.83578 24.1642 6.49998 23.75 6.49998V6.49998C23.3358 6.49998 23 6.83578 23 7.24998V7.24998C23 7.66418 23.3358 7.99998 23.75 7.99998Z" stroke="#F9F9F9" stroke-width="3"/>
</svg>
