<svg width="30" height="25" viewBox="0 0 30 25" fill="none" xmlns="http://www.w3.org/2000/svg">
<path d="M1.36364 24.3749C0.977278 24.3749 0.653186 24.245 0.391368 23.9849C0.12955 23.725 -0.000904372 23.4036 4.71846e-06 23.0208C4.71846e-06 22.6371 0.130913 22.3153 0.392732 22.0553C0.65455 21.7953 0.978187 21.6658 1.36364 21.6667H28.6363C29.0227 21.6667 29.3468 21.7966 29.6086 22.0567C29.8704 22.3167 30.0009 22.638 30 23.0208C30 23.4045 29.8691 23.7264 29.6073 23.9863C29.3454 24.2463 29.0218 24.3759 28.6363 24.3749H1.36364ZM4.09091 20.3125C3.34091 20.3125 2.69864 20.0471 2.1641 19.5163C1.62955 18.9854 1.36273 18.348 1.36364 17.6041V2.70832C1.36364 1.96352 1.63091 1.32571 2.16546 0.794884C2.7 0.26405 3.34182 -0.000914839 4.09091 -1.29643e-05H25.9091C26.6591 -1.29643e-05 27.3013 0.265404 27.8359 0.796234C28.3704 1.32707 28.6372 1.96443 28.6363 2.70832V17.6041C28.6363 18.349 28.3691 18.9868 27.8346 19.5176C27.3 20.0484 26.6582 20.3134 25.9091 20.3125H4.09091ZM4.09091 17.6041H25.9091V2.70832H4.09091V17.6041Z" fill="#F9F9F9"/>
</svg>
