<svg width="20" height="11" viewBox="0 0 20 11" fill="none" xmlns="http://www.w3.org/2000/svg">
<g clip-path="url(#clip0_4783_2102)">
<path d="M7.57639 1.71564C7.33553 1.71564 7.11437 1.83961 6.98955 2.04327L4.21301 6.57035C4.02031 6.88913 4.10571 7.3031 4.41008 7.51561L5.79835 8.47195L8.69314 1.71564H7.57639Z" fill="#F9F9F9"/>
<path d="M19.4446 6.1453L17.3556 3.73012C17.3074 3.67477 17.2527 3.62607 17.1892 3.59065H15.6214C15.4768 3.59065 15.3586 3.71019 15.3586 3.8563V7.34735C15.3586 7.51117 15.225 7.64621 15.063 7.64621C14.901 7.64621 14.7674 7.51117 14.7674 7.34735V3.2918C14.7674 3.12798 14.901 2.99294 15.063 2.99294H16.5148V2.41516C16.5148 2.02776 16.2038 1.71783 15.825 1.71783H9.34129L6.30417 8.79292C6.37862 8.82391 6.46183 8.84162 6.54504 8.84162H6.87349V8.85712C6.87349 9.50132 7.26545 10.099 7.872 10.3027C8.92525 10.6569 9.90186 9.87322 9.90186 8.85712V8.84162H10.6004V8.85712C10.6004 9.50132 10.9923 10.099 11.5989 10.3027C12.6521 10.6569 13.6309 9.87322 13.6309 8.85712V8.84162H15.7287V8.85712C15.7287 9.50132 16.1206 10.099 16.7272 10.3027C17.7804 10.6569 18.7592 9.87322 18.7592 8.85712V8.84162H18.9278C19.3088 8.84162 19.6176 8.52949 19.6176 8.1443V6.61018C19.6176 6.44194 19.5563 6.27812 19.4468 6.14973L19.4446 6.1453ZM9.11137 8.85491C9.11137 9.26223 8.78292 9.58765 8.38658 9.58765C7.99024 9.58765 7.66179 9.26002 7.66179 8.85491V8.83941C7.67055 8.44536 7.99024 8.12216 8.38658 8.12216C8.78292 8.12216 9.1048 8.44536 9.11137 8.83941V8.85491ZM12.8383 8.85491C12.8383 9.34635 12.3675 9.72048 11.8551 9.54559C11.5682 9.44819 11.3865 9.1604 11.3865 8.85491V8.83941C11.3952 8.44536 11.7149 8.12216 12.1113 8.12216C12.5076 8.12216 12.8295 8.44536 12.8361 8.83941V8.85491H12.8383ZM17.9665 8.85491C17.9665 9.34635 17.4958 9.72048 16.9834 9.54559C16.6965 9.44819 16.5148 9.1604 16.5148 8.85491V8.83941C16.5235 8.44536 16.8432 8.12216 17.2396 8.12216C17.6359 8.12216 17.9578 8.44536 17.9644 8.83941V8.85491H17.9665ZM17.9118 5.84423H16.0549C15.9498 5.84423 15.8666 5.75789 15.8666 5.65385V4.26141C15.8666 4.15515 15.952 4.07103 16.0549 4.07103H16.5717C16.8564 4.07546 17.1235 4.2105 17.2899 4.44294L18.0651 5.54538C18.1549 5.67156 18.0651 5.84644 17.9118 5.84644V5.84423Z" fill="#F9F9F9"/>
<path d="M3.06341 3.75892C2.92327 3.69251 2.86414 3.52426 2.92765 3.38258C2.99334 3.24091 3.15975 3.18113 3.2999 3.24533L5.11516 4.10426L5.1502 4.04449C5.26187 3.85411 5.18523 3.60617 4.98597 3.51319L2.44591 2.31778L0.678818 3.708L0.129202 5.26647C0.0657008 5.45021 0.14891 5.65166 0.321896 5.73357L0.497073 5.81548L0.299999 6.24273C0.256205 6.3357 0.29781 6.4486 0.389777 6.49288C0.481745 6.53715 0.59342 6.49509 0.637214 6.40211L0.834288 5.97486L2.52693 6.77181L2.32986 7.19906C2.28606 7.29203 2.32767 7.40493 2.41963 7.44921C2.5116 7.49348 2.62328 7.45142 2.66707 7.35845L2.86414 6.9312L3.03932 7.0131C3.21231 7.09501 3.42033 7.0286 3.51668 6.86257L4.8305 4.59571L3.06341 3.75892Z" fill="#F9F9F9"/>
<path d="M0.427095 3.15246L3.82771 0.544685C3.98318 0.425143 3.95252 0.172778 3.7664 0.110793C2.71534 -0.243404 1.69494 0.343235 1.2548 0.679722C0.770879 1.05163 -0.142228 1.94819 0.0198102 2.97979C0.050466 3.1746 0.271626 3.272 0.427095 3.15246Z" fill="#F9F9F9"/>
</g>
<defs>
<clipPath id="clip0_4783_2102">
<rect width="20" height="10.7692" fill="white"/>
</clipPath>
</defs>
</svg>
