<svg width="20" height="20" viewBox="0 0 20 20" fill="none" xmlns="http://www.w3.org/2000/svg">
<path fill-rule="evenodd" clip-rule="evenodd" d="M11.0249 0.0767784C11.2398 0.00523305 11.4682 -0.0167024 11.6928 0.0126183C11.9174 0.0419391 12.1325 0.121754 12.3218 0.246074C12.5112 0.370394 12.67 0.53599 12.7862 0.730434C12.9024 0.924877 12.9731 1.14312 12.9929 1.36878L12.9989 1.50078V6.98678L16.7929 7.74678C17.1091 7.80979 17.3965 7.97298 17.6127 8.21218C17.8288 8.45139 17.9621 8.75386 17.9929 9.07478L17.9989 9.21678V16.8068H18.9989C19.2538 16.8071 19.4989 16.9047 19.6843 17.0796C19.8696 17.2546 19.9811 17.4937 19.9961 17.7482C20.011 18.0026 19.9282 18.2532 19.7646 18.4486C19.601 18.6441 19.369 18.7697 19.1159 18.7998L18.9989 18.8068H0.998892C0.744012 18.8065 0.49886 18.7089 0.313524 18.5339C0.128188 18.359 0.0166572 18.1198 0.00172004 17.8654C-0.0132171 17.6109 0.0695667 17.3604 0.233157 17.1649C0.396747 16.9695 0.628796 16.8439 0.881892 16.8138L0.998892 16.8068H1.99889V4.16678C1.99889 3.56678 2.35489 3.03078 2.89689 2.79278L3.02489 2.74378L11.0249 0.0767784ZM10.9989 2.19478L3.99889 4.52778V16.8068H10.9989V2.19478ZM12.9989 9.02778V16.8068H15.9989V9.62678L12.9989 9.02778Z" fill="#F9F9F9"/>
</svg>
