<svg width="21" height="20" viewBox="0 0 21 20" fill="none" xmlns="http://www.w3.org/2000/svg">
<g clip-path="url(#clip0_6006_8)">
<path d="M2.77472 10C2.77472 13.4282 2.77472 16.9609 3.9729 18.0255C5.17108 19.0909 7.10017 19.0909 10.9565 19.0909C14.8138 19.0909 16.742 19.0909 17.9402 18.0255C19.1384 16.9609 19.1384 13.4282 19.1384 10" stroke="#F9F9F9" stroke-width="1.5"/>
<path d="M13.3747 12.0018L18.8365 10.3636C19.3774 10.2009 19.6484 10.12 19.8202 9.92545C19.8538 9.88747 19.8843 9.84672 19.9111 9.80363C20.0474 9.58272 20.0474 9.30091 20.0474 8.73545C20.0474 6.50818 20.0474 5.39454 19.4356 4.64272C19.318 4.49805 19.1858 4.36585 19.0411 4.24818C18.2893 3.63636 17.1756 3.63636 14.9484 3.63636H6.96563C4.73836 3.63636 3.62472 3.63636 2.8729 4.24818C2.72745 4.36636 2.59563 4.49818 2.47836 4.64272C1.86563 5.39454 1.86563 6.50818 1.86563 8.73545C1.86563 9.30091 1.86563 9.58272 2.00199 9.80363C2.02927 9.84636 2.05927 9.88727 2.0929 9.92545C2.26563 10.12 2.53563 10.2009 3.07654 10.3636L8.53836 12.0018M5.95654 3.63636C6.70472 3.61818 7.46563 3.14091 7.72018 2.43636L7.75199 2.34272L7.77472 2.27272C7.8129 2.15727 7.8329 2.1 7.8529 2.04909C7.98132 1.72983 8.19771 1.45356 8.47692 1.25241C8.75612 1.05125 9.08668 0.93346 9.43018 0.912724C9.48381 0.909088 9.54563 0.909088 9.66563 0.909088H12.2456C12.3665 0.909088 12.4274 0.909088 12.482 0.912724C12.8255 0.93346 13.156 1.05125 13.4353 1.25241C13.7145 1.45356 13.9308 1.72983 14.0593 2.04909C14.0802 2.1 14.0993 2.15818 14.1374 2.27272L14.1611 2.34272C14.1774 2.39091 14.1847 2.41545 14.1929 2.43636C14.4474 3.14091 15.2074 3.61818 15.9556 3.63636" stroke="#F9F9F9" stroke-width="1.5"/>
<path d="M12.7747 10.4545H9.13835C9.0178 10.4545 8.90218 10.5024 8.81694 10.5877C8.7317 10.6729 8.68381 10.7885 8.68381 10.9091V12.8745C8.68383 12.9653 8.71103 13.054 8.7619 13.1292C8.81278 13.2044 8.885 13.2626 8.96926 13.2963L9.60563 13.5509C10.4728 13.8979 11.4403 13.8979 12.3074 13.5509L12.9438 13.2963C13.0281 13.2626 13.1003 13.2044 13.1512 13.1292C13.202 13.054 13.2292 12.9653 13.2293 12.8745V10.9091C13.2293 10.7885 13.1814 10.6729 13.0961 10.5877C13.0109 10.5024 12.8953 10.4545 12.7747 10.4545Z" stroke="#F9F9F9" stroke-width="1.5" stroke-linecap="round"/>
</g>
<defs>
<clipPath id="clip0_6006_8">
<rect width="20" height="20" fill="white" transform="translate(0.956543)"/>
</clipPath>
</defs>
</svg>
