<svg width="20" height="20" viewBox="0 0 20 20" fill="none" xmlns="http://www.w3.org/2000/svg">
<path d="M2.54018 17.7773C3.63109 19.0909 5.66018 19.0909 9.72018 19.0909H10.3747C14.4347 19.0909 16.4647 19.0909 17.5556 17.7773M2.54018 17.7773C1.44927 16.4627 1.82381 14.4682 2.572 10.4773C3.10381 7.6409 3.36927 6.2218 4.37927 5.38362M17.5556 17.7773C18.6465 16.4627 18.272 14.4682 17.5238 10.4773C16.992 7.6409 16.7256 6.2218 15.7156 5.38362M15.7156 5.38362C14.7065 4.54544 13.262 4.54544 10.3756 4.54544H9.71927C6.8329 4.54544 5.38927 4.54544 4.37927 5.38362" stroke="#F9F9F9" stroke-width="1.5"/>
<path d="M7.32019 4.54545V3.63636C7.32019 2.91304 7.60753 2.21935 8.11899 1.70789C8.63045 1.19643 9.32415 0.909088 10.0475 0.909088C10.7708 0.909088 11.4645 1.19643 11.9759 1.70789C12.4874 2.21935 12.7747 2.91304 12.7747 3.63636V4.54545" stroke="#F9F9F9" stroke-width="1.5" stroke-linecap="round"/>
</svg>
