<svg width="20" height="12" viewBox="0 0 20 12" fill="none" xmlns="http://www.w3.org/2000/svg">
<g clip-path="url(#clip0_4783_2097)">
<path d="M3.02222 4.73333C3.12922 4.73333 3.23518 4.71226 3.33403 4.67131C3.43289 4.63036 3.52272 4.57034 3.59838 4.49468C3.67404 4.41902 3.73406 4.32919 3.77501 4.23033C3.81596 4.13148 3.83703 4.02552 3.83703 3.91852C3.79914 3.66016 3.68278 3.41967 3.5037 3.22963C3.40105 3.11458 3.32067 2.98146 3.26666 2.83704V1.71111L8.8074 6.76296C8.85108 6.79772 8.90154 6.82295 8.95555 6.83704C9.0227 6.87791 9.09921 6.90087 9.17777 6.9037H9.82963C9.95929 6.9037 10.0836 6.8522 10.1753 6.76051C10.267 6.66883 10.3185 6.54448 10.3185 6.41481V3.99259C10.3195 3.92811 10.3076 3.86409 10.2833 3.80433C10.2591 3.74456 10.2231 3.69027 10.1775 3.64467C10.132 3.59907 10.0777 3.5631 10.0179 3.53888C9.95812 3.51467 9.8941 3.5027 9.82963 3.5037H9.17777C9.13838 3.49953 9.09865 3.49953 9.05925 3.5037L3.31851 0.777778C3.23884 0.737798 3.14724 0.728538 3.06117 0.751762C2.97511 0.774986 2.9006 0.82907 2.85185 0.903704C2.82386 0.945948 2.8061 0.994138 2.8 1.04444C2.8 1.04444 2.8 1.04444 2.8 1.08889V2.83704C2.83806 3.0947 2.95744 3.33347 3.14074 3.51852C3.24269 3.63685 3.32294 3.77226 3.37777 3.91852C3.37777 4.00692 3.34265 4.09171 3.28014 4.15422C3.21763 4.21673 3.13285 4.25185 3.04444 4.25185C2.95603 4.25185 2.87125 4.21673 2.80874 4.15422C2.74623 4.09171 2.71111 4.00692 2.71111 3.91852C2.7173 3.88337 2.71571 3.84729 2.70647 3.81282C2.69723 3.77835 2.68055 3.74632 2.6576 3.71898C2.63466 3.69164 2.60601 3.66966 2.57366 3.65458C2.54131 3.6395 2.50606 3.63168 2.47037 3.63168C2.43468 3.63168 2.39942 3.6395 2.36707 3.65458C2.33473 3.66966 2.30607 3.69164 2.28313 3.71898C2.26019 3.74632 2.24351 3.77835 2.23426 3.81282C2.22502 3.84729 2.22344 3.88337 2.22963 3.91852C2.22955 4.13083 2.31234 4.33478 2.46037 4.48696C2.6084 4.63915 2.80999 4.72754 3.02222 4.73333ZM8.68888 4.17037V5.65185L5.26666 2.53333L8.68888 4.17037Z" fill="#F9F9F9"/>
<path d="M19.037 8.14814C19.037 8.14814 19.2518 6.66666 18.9852 6.5111C18.844 6.39334 18.6869 6.29609 18.5185 6.22221C18.0748 6.09674 17.6166 6.02951 17.1555 6.02221H16.8074C16.6087 6.02306 16.4119 5.98269 16.2296 5.90364C16.0473 5.82459 15.8833 5.70858 15.7481 5.56295L14.0222 3.76295C13.9436 3.68114 13.8493 3.61602 13.7449 3.57148C13.6405 3.52694 13.5283 3.50388 13.4148 3.50369H11.5037C11.3367 3.50369 11.1766 3.57003 11.0585 3.68811C10.9404 3.80619 10.8741 3.96633 10.8741 4.13332V6.8148C10.8741 6.96608 10.814 7.11115 10.707 7.21812C10.6 7.32508 10.455 7.38517 10.3037 7.38517H6.96295C6.39973 7.38369 5.83815 7.44581 5.28888 7.57036L0.977765 8.53332C0.936919 8.53696 0.89741 8.54972 0.862149 8.57065C0.826888 8.59159 0.796774 8.62017 0.774028 8.65429C0.751281 8.68841 0.73648 8.7272 0.730717 8.7678C0.724954 8.8084 0.728375 8.84977 0.740728 8.88888C0.758188 8.96458 0.802114 9.03155 0.864588 9.07773C0.927063 9.12391 1.00398 9.14625 1.08147 9.14073L2.96295 8.97036C3.11609 8.9557 3.26976 8.99217 3.39999 9.07406C3.56676 9.19977 3.74538 9.30893 3.93332 9.39999C4.11058 9.41909 4.28939 9.41909 4.46665 9.39999C4.46157 9.79006 4.57692 10.1722 4.79697 10.4943C5.01702 10.8165 5.33107 11.0629 5.69628 11.2C5.97909 11.2995 6.28165 11.3298 6.57857 11.2882C6.87548 11.2466 7.15808 11.1343 7.40264 10.9609C7.64719 10.7875 7.84657 10.5579 7.98402 10.2914C8.12148 10.025 8.193 9.72943 8.19258 9.42962H13.9481C13.9481 9.93058 14.1471 10.411 14.5014 10.7653C14.8556 11.1195 15.3361 11.3185 15.837 11.3185C16.338 11.3185 16.8184 11.1195 17.1727 10.7653C17.5269 10.411 17.7259 9.93058 17.7259 9.42962H18.9111C19.034 9.41296 19.1474 9.35456 19.2324 9.2642C19.3174 9.17384 19.3687 9.05702 19.3778 8.93332V8.59999C19.3778 8.4074 19.3555 8.14814 19.037 8.14814ZM7.22221 9.43703C7.23352 9.56108 7.21885 9.68612 7.17914 9.80419C7.13942 9.92225 7.07553 10.0307 6.99155 10.1227C6.90756 10.2147 6.80532 10.2882 6.69135 10.3385C6.57738 10.3888 6.45418 10.4147 6.32962 10.4147C6.20505 10.4147 6.08185 10.3888 5.96788 10.3385C5.85391 10.2882 5.75167 10.2147 5.66769 10.1227C5.5837 10.0307 5.51981 9.92225 5.4801 9.80419C5.44038 9.68612 5.42571 9.56108 5.43702 9.43703C5.45733 9.21433 5.56015 9.00727 5.7253 8.85649C5.89045 8.70572 6.106 8.62213 6.32962 8.62213C6.55324 8.62213 6.76878 8.70572 6.93393 8.85649C7.09908 9.00727 7.2019 9.21433 7.22221 9.43703ZM14.7185 6.02221H11.7555C11.6809 6.02221 11.6093 5.99256 11.5565 5.93977C11.5037 5.88698 11.4741 5.81538 11.4741 5.74073V4.29629C11.4741 4.22163 11.5037 4.15004 11.5565 4.09725C11.6093 4.04446 11.6809 4.0148 11.7555 4.0148H13.4296C13.4702 4.01488 13.5103 4.02349 13.5473 4.04008C13.5843 4.05667 13.6174 4.08087 13.6444 4.1111L14.8963 5.59258C14.9233 5.63042 14.9403 5.67452 14.9456 5.72072C14.9509 5.76693 14.9443 5.81372 14.9265 5.85669C14.9087 5.89966 14.8803 5.9374 14.8439 5.96636C14.8075 5.99531 14.7644 6.01454 14.7185 6.02221ZM16.7555 9.62962C16.7155 9.79482 16.6307 9.94581 16.5105 10.066C16.3902 10.1862 16.2393 10.271 16.0741 10.3111C15.9152 10.3526 15.7483 10.3519 15.5898 10.3089C15.4314 10.2659 15.2869 10.1823 15.1708 10.0662C15.0548 9.95008 14.9711 9.80563 14.9281 9.64718C14.8851 9.48873 14.8844 9.32179 14.9259 9.16295C14.966 8.99775 15.0508 8.84677 15.171 8.72656C15.2912 8.60635 15.4422 8.52156 15.6074 8.48147C15.7662 8.43993 15.9332 8.44068 16.0916 8.48365C16.2501 8.52662 16.3945 8.61031 16.5106 8.7264C16.6267 8.84249 16.7104 8.98694 16.7534 9.14539C16.7963 9.30384 16.7971 9.47078 16.7555 9.62962Z" fill="#F9F9F9"/>
</g>
<defs>
<clipPath id="clip0_4783_2097">
<rect width="20" height="11.8519" fill="white"/>
</clipPath>
</defs>
</svg>
