<svg width="20" height="16" viewBox="0 0 20 16" fill="none" xmlns="http://www.w3.org/2000/svg">
<g clip-path="url(#clip0_4783_2039)">
<path d="M19.3947 3.6205H17.4583C17.4583 3.6205 17.1479 2.91813 16.1933 1.43191C15.2426 -0.0543187 13.6128 8.00117e-06 13.6128 8.00117e-06H6.38342C6.38342 8.00117e-06 4.75361 -0.0543187 3.79901 1.43191C2.84442 2.91813 2.53398 3.6205 2.53398 3.6205H0.601498C0.601498 3.6205 -0.632495 4.18317 0.434637 5.10672L1.4164 5.41716C1.4164 5.41716 0.659705 6.48429 0.520008 7.29919C0.380311 8.11409 0.520008 14.6527 0.520008 14.6527C0.520008 14.6527 0.605379 15.0446 1.10984 15.0446H2.87546C2.87546 15.0446 3.35276 14.9321 3.37992 14.6527C3.40709 14.3733 3.37992 13.248 3.37992 13.248H16.6162C16.6162 13.248 16.5891 14.3694 16.6162 14.6527C16.6434 14.9321 17.1207 15.0446 17.1207 15.0446H18.8902C19.3947 15.0446 19.48 14.6527 19.48 14.6527C19.48 14.6527 19.6197 8.11409 19.48 7.29919C19.3403 6.48429 18.5798 5.41716 18.5798 5.41716L19.5615 5.10672C20.6287 4.17929 19.3947 3.6205 19.3947 3.6205ZM3.11217 4.81957L4.59839 1.93637C4.59839 1.93637 5.06017 0.779985 6.85295 0.779985H13.151C14.9399 0.779985 15.4055 1.93637 15.4055 1.93637L16.8918 4.81957C17.0004 5.03299 16.8491 5.28522 16.6085 5.28522H3.39544C3.15874 5.28522 3.00352 5.03299 3.11217 4.81957ZM5.49478 8.9872C5.4521 9.47226 4.75749 9.57704 4.75749 9.57704C4.75749 9.57704 2.73576 9.76718 2.27399 9.57704C1.81221 9.38689 1.57938 8.9678 1.59878 8.16842C1.61818 7.36904 3.02292 7.59411 3.02292 7.59411C3.02292 7.59411 4.79242 8.05201 5.05241 8.1917C5.32792 8.33916 5.53747 8.49438 5.49478 8.99108V8.9872ZM12.6698 12.2546C12.6698 12.3283 12.6077 12.3904 12.534 12.3904H7.0431C6.96937 12.3904 6.90728 12.3283 6.90728 12.2546V11.3737C6.90728 11.3 6.96937 11.2379 7.0431 11.2379H12.534C12.6077 11.2379 12.6698 11.3 12.6698 11.3737V12.2546ZM17.7998 9.60032C17.338 9.79046 15.3163 9.60032 15.3163 9.60032C15.3163 9.60032 14.6217 9.49555 14.579 9.01048C14.5363 8.51378 14.7459 8.35856 15.0214 8.21111C15.2814 8.07141 17.0509 7.61351 17.0509 7.61351C17.0509 7.61351 18.4556 7.38844 18.475 8.18782C18.4944 8.9872 18.2654 9.41018 17.7998 9.60032Z" fill="#F9F9F9"/>
</g>
<defs>
<clipPath id="clip0_4783_2039">
<rect width="20" height="15.0446" fill="white"/>
</clipPath>
</defs>
</svg>
