<svg width="20" height="15" viewBox="0 0 20 15" fill="none" xmlns="http://www.w3.org/2000/svg">
<g clip-path="url(#clip0_4783_2008)">
<path fill-rule="evenodd" clip-rule="evenodd" d="M19.9014 11.6813C19.9014 12.3994 19.3217 12.9792 18.6035 12.9792H11.2486V13.8445H14.2771C14.5194 13.8445 14.7097 14.0348 14.7097 14.2771C14.7097 14.5194 14.5194 14.7097 14.2771 14.7097H5.62431C5.38205 14.7097 5.19169 14.5194 5.19169 14.2771C5.19169 14.0348 5.38205 13.8445 5.62431 13.8445H8.65277V12.9792H1.29792C0.579738 12.9792 0 12.3994 0 11.6813V1.29792C0 0.579738 0.579738 0 1.29792 0H18.6035C19.3217 0 19.9014 0.579738 19.9014 1.29792V11.6813ZM7.53661 4.42157L7.21646 3.60821L6.89631 2.78619L6.57615 1.96418C6.5502 1.89496 6.50692 1.83439 6.44636 1.77382C6.39446 1.71325 6.32523 1.66133 6.23872 1.61807C6.16082 1.56615 6.07431 1.54019 5.97913 1.51424C5.87528 1.48828 5.7801 1.47963 5.66759 1.47963C5.56379 1.47963 5.45995 1.48828 5.36477 1.51424C5.26959 1.54019 5.17441 1.56615 5.09652 1.61807C5.01865 1.66133 4.94943 1.70459 4.88886 1.77382C4.83694 1.83439 4.78503 1.90361 4.75907 1.96418L4.43891 2.78619L4.11876 3.60821L3.7986 4.43023L3.47845 5.25226C3.4525 5.32149 3.4525 5.38205 3.47845 5.44262C3.49576 5.50318 3.53902 5.56374 3.59094 5.61564C3.64286 5.66759 3.71208 5.7022 3.78995 5.72815C3.86783 5.7541 3.95436 5.77138 4.04954 5.77138C4.11876 5.77138 4.17933 5.77138 4.2399 5.74544C4.30047 5.73682 4.35238 5.71082 4.4043 5.68487C4.45622 5.65892 4.49948 5.62431 4.53409 5.58969C4.5687 5.55508 4.59466 5.51185 4.61197 5.46856L4.64658 5.37338L4.68119 5.2782L4.7158 5.19169L4.75042 5.09649C4.75042 5.09649 4.75042 5.08784 4.76772 5.07918C4.76772 5.07918 4.77637 5.07053 4.78503 5.07053C4.78503 5.07053 4.80233 5.06188 4.81098 5.06188H4.83694H6.47231H6.50692C6.50692 5.06188 6.52426 5.06188 6.53287 5.07053L6.5502 5.07918V5.09649L6.58482 5.18303L6.61944 5.2782L6.65405 5.36472L6.68861 5.45123C6.68861 5.49185 6.71513 5.5219 6.74323 5.55374C6.75103 5.56261 6.75897 5.57164 6.76651 5.58103C6.80113 5.62431 6.84441 5.65026 6.89631 5.6762C6.9482 5.71082 7.00015 5.72815 7.06938 5.74544C7.12995 5.76277 7.19051 5.77138 7.25974 5.77138C7.25974 5.77138 7.4501 5.7541 7.52795 5.72815C7.61446 5.69354 7.68369 5.65892 7.73564 5.60703C7.78754 5.55508 7.83082 5.49451 7.8481 5.43395C7.86544 5.37338 7.86544 5.30415 7.8481 5.24359L7.52795 4.42157H7.53661ZM6.256 4.20525C6.256 4.20525 6.256 4.22256 6.23872 4.23121C6.23872 4.23121 6.22138 4.23986 6.21272 4.24852H6.1781H5.20036H5.16574C5.16574 4.24852 5.13979 4.23986 5.13113 4.23121V4.20525C5.12248 4.20525 5.12248 4.18795 5.13113 4.17929L5.25226 3.84184L5.38205 3.50437L5.51185 3.16692L5.63297 2.82946C5.63297 2.82946 5.65031 2.8035 5.66759 2.79485C5.67626 2.79485 5.68492 2.79268 5.69359 2.79052C5.7022 2.78836 5.71087 2.78619 5.71954 2.78619C5.73682 2.78619 5.75415 2.78619 5.77144 2.79485C5.78877 2.79485 5.79738 2.81215 5.80605 2.82946L5.92718 3.16692L6.03969 3.50437L6.16082 3.84184L6.28195 4.17929V4.20525H6.256ZM5.99656 9.4402H6.42923C6.97877 9.4402 7.42431 9.88569 7.42431 10.4353V11.1534C7.42431 11.703 6.97877 12.1485 6.42923 12.1485H5.99656C5.44703 12.1485 5.00151 11.703 5.00151 11.1534V10.4353C5.00151 9.88569 5.44703 9.4402 5.99656 9.4402ZM9.63056 4.02352H10.0719C10.617 4.02352 11.067 4.46481 11.067 5.01858V11.1621C11.067 11.7072 10.6256 12.1571 10.0719 12.1571H9.63056C9.08549 12.1571 8.63554 11.7158 8.63554 11.1621V5.01858C8.63554 4.47346 9.07682 4.02352 9.63056 4.02352ZM16.9163 1.31521H17.3489C17.8985 1.31521 18.3439 1.76072 18.3439 2.31028V11.1534C18.3439 11.703 17.8985 12.1485 17.3489 12.1485H16.9163C16.3667 12.1485 15.9212 11.703 15.9212 11.1534V2.31028C15.9212 1.76072 16.3667 1.31521 16.9163 1.31521ZM2.60468 5.64159C2.50085 5.71944 2.3451 5.77138 2.17204 5.77138C2.00764 5.77138 1.84324 5.71944 1.73075 5.64159C1.61827 5.56369 1.54904 5.45123 1.54904 5.3301V1.93819C1.54904 1.81705 1.61827 1.71322 1.73075 1.62669C1.84324 1.54881 2.00764 1.4969 2.17204 1.4969C2.33645 1.4969 2.49219 1.54881 2.60468 1.62669C2.71717 1.70456 2.78639 1.81705 2.78639 1.93819V5.3301C2.78639 5.45123 2.71717 5.56369 2.60468 5.64159ZM13.7062 6.45497H13.2735C12.724 6.45497 12.2785 6.90046 12.2785 7.45005V11.1534C12.2785 11.703 12.724 12.1485 13.2735 12.1485H13.7062C14.2557 12.1485 14.7013 11.703 14.7013 11.1534V7.45005C14.7013 6.90046 14.2557 6.45497 13.7062 6.45497ZM2.50943 7.32892H2.94206C3.49163 7.32892 3.93713 7.77441 3.93713 8.324V11.1534C3.93713 11.703 3.49163 12.1485 2.94206 12.1485H2.50943C1.95986 12.1485 1.51435 11.703 1.51435 11.1534V8.324C1.51435 7.77441 1.95986 7.32892 2.50943 7.32892Z" fill="#F9F9F9"/>
</g>
<defs>
<clipPath id="clip0_4783_2008">
<rect width="20" height="14.8718" fill="white"/>
</clipPath>
</defs>
</svg>
