<svg width="20" height="17" viewBox="0 0 20 17" fill="none" xmlns="http://www.w3.org/2000/svg">
<g clip-path="url(#clip0_4783_2010)">
<path d="M11.315 14.26C10.2744 14.7913 9.11481 15.0465 7.9473 15.0013C6.77981 14.9561 5.64346 14.6119 4.64708 14.0017C3.65071 13.3915 2.82768 12.5357 2.25677 11.5163C1.68589 10.4969 1.38626 9.34797 1.38658 8.17959C1.38658 8.01505 1.32122 7.85723 1.20486 7.74087C1.0885 7.62453 0.93069 7.55915 0.766137 7.55915C0.601585 7.55915 0.443772 7.62453 0.327414 7.74087C0.211059 7.85723 0.145691 8.01505 0.145691 8.17959C0.145691 10.3188 0.995478 12.3703 2.5081 13.883C4.02074 15.3956 6.07231 16.2454 8.21149 16.2454C10.3507 16.2454 12.4022 15.3956 13.9149 13.883C15.4275 12.3703 16.2773 10.3188 16.2773 8.17959C16.2775 7.25933 16.073 6.35053 15.6786 5.51905C15.2842 4.68758 14.7098 3.95425 13.997 3.3722C13.2841 2.79015 12.4508 2.37397 11.5572 2.15381C10.6637 1.93363 9.73235 1.91499 8.83069 2.09923C9.8713 1.56793 11.0309 1.31268 12.1984 1.35791C13.3659 1.40313 14.5022 1.74733 15.4986 2.35753C16.4949 2.96774 17.318 3.82351 17.8888 4.84292C18.4598 5.86233 18.7595 7.01122 18.7591 8.17959C18.7591 8.34415 18.8244 8.50197 18.9408 8.61832C19.0572 8.73468 19.215 8.80005 19.3795 8.80005C19.5441 8.80005 19.7019 8.73468 19.8182 8.61832C19.9346 8.50197 20 8.34415 20 8.17959C20 6.04041 19.1501 3.98886 17.6375 2.47622C16.1249 0.963587 14.0733 0.1138 11.9342 0.1138C9.79499 0.1138 7.74341 0.963587 6.23079 2.47622C4.71815 3.98884 3.86836 6.04041 3.86836 8.17959C3.86815 9.09987 4.07264 10.0087 4.46704 10.8402C4.86143 11.6716 5.43585 12.405 6.14869 12.987C6.86151 13.569 7.69489 13.9852 8.58845 14.2054C9.48199 14.4256 10.4133 14.4442 11.315 14.26ZM7.59105 8.17959C7.59105 7.5214 7.85251 6.89014 8.31794 6.42471C8.78336 5.95928 9.41463 5.69781 10.0728 5.69781C10.731 5.69781 11.3623 5.95928 11.8277 6.42471C12.2931 6.89014 12.5546 7.5214 12.5546 8.17959C12.5546 8.83781 12.2931 9.46907 11.8277 9.93448C11.3623 10.3999 10.731 10.6614 10.0728 10.6614C9.41463 10.6614 8.78336 10.3999 8.31794 9.93448C7.85251 9.46907 7.59105 8.83781 7.59105 8.17959Z" fill="#F9F9F9"/>
</g>
<defs>
<clipPath id="clip0_4783_2010">
<rect width="20" height="16.3934" fill="white"/>
</clipPath>
</defs>
</svg>
