<svg width="20" height="20" viewBox="0 0 20 20" fill="none" xmlns="http://www.w3.org/2000/svg">
<g clip-path="url(#clip0_4783_2074)">
<path d="M7.0899 14.2035L4.36046 17.8412C4.36046 17.8412 4.14173 18.0314 4.13222 18.0409C4.07991 18.0789 4.02285 18.0932 3.97054 18.1217C3.91824 18.1408 3.86118 18.1693 3.80887 18.174C3.75656 18.1788 3.6995 18.174 3.6472 18.174C3.58538 18.174 3.52832 18.174 3.4665 18.1645C3.41419 18.155 3.36664 18.1265 3.30958 18.1122C3.24777 18.0837 3.1907 18.0647 3.1384 18.0314C3.11938 18.0314 2.93868 17.8697 2.91015 17.8317L0.180719 14.194C-0.118853 13.7946 -0.0380162 13.2192 0.361413 12.9196C0.523087 12.7913 0.718047 12.739 0.908251 12.739C1.17929 12.739 1.45509 12.8673 1.63578 13.1003L2.7247 14.5554V2.74371C2.7247 2.24442 3.13364 1.83548 3.63293 1.83548C4.13222 1.83548 4.54116 2.24442 4.54116 2.74371V14.5649L5.63008 13.1098C5.81077 12.8721 6.08657 12.7485 6.35761 12.7485C6.54781 12.7485 6.73802 12.8008 6.90445 12.9292C7.30388 13.2287 7.38471 13.8041 7.08514 14.2035H7.0899Z" fill="#F9F9F9"/>
<path d="M10.9082 19.0965C10.9082 19.5958 10.4993 20.0047 10 20.0047C9.50074 20.0047 9.0918 19.5958 9.0918 19.0965V16.3671C9.0918 15.8678 9.50074 15.4589 10 15.4589C10.4993 15.4589 10.9082 15.8678 10.9082 16.3671V19.0965Z" fill="#F9F9F9"/>
<path d="M10.9082 12.7294C10.9082 13.2287 10.4993 13.6377 10 13.6377C9.50074 13.6377 9.0918 13.2287 9.0918 12.7294V7.27532C9.0918 6.77604 9.50074 6.3671 10 6.3671C10.4993 6.3671 10.9082 6.77604 10.9082 7.27532V12.7294Z" fill="#F9F9F9"/>
<path d="M10.9082 3.63766C10.9082 4.13695 10.4993 4.54589 10 4.54589C9.50074 4.54589 9.0918 4.13695 9.0918 3.63766V0.908226C9.0918 0.40894 9.50074 0 10 0C10.4993 0 10.9082 0.40894 10.9082 0.908226V3.63766Z" fill="#F9F9F9"/>
<path d="M19.6386 7.09938C19.477 7.21826 19.282 7.27057 19.0918 7.27057C18.8208 7.27057 18.545 7.14218 18.3643 6.90918L17.2753 5.45412V17.2753C17.2753 17.7746 16.8664 18.1835 16.3671 18.1835C15.8678 18.1835 15.4589 17.7746 15.4589 17.2753V5.45412L14.37 6.90918C14.1893 7.14694 13.9135 7.27057 13.6424 7.27057C13.4522 7.27057 13.262 7.21826 13.0956 7.08987C12.6962 6.7903 12.6153 6.21493 12.9149 5.8155L15.6443 2.17784C15.6443 2.17784 15.8631 1.98764 15.8726 1.97813C15.9249 1.94009 15.982 1.92582 16.0343 1.89729C16.0866 1.87827 16.1436 1.84974 16.1959 1.84499C16.2482 1.83548 16.3053 1.84499 16.3576 1.84499C16.4194 1.84499 16.4765 1.84499 16.5383 1.8545C16.5906 1.86401 16.6382 1.89254 16.6952 1.9068C16.757 1.93533 16.8141 1.95435 16.8664 1.98764C16.8854 1.99715 17.0661 2.14931 17.0947 2.18735L19.8241 5.82501C20.1237 6.22444 20.0428 6.79981 19.6434 7.09938H19.6386Z" fill="#F9F9F9"/>
</g>
<defs>
<clipPath id="clip0_4783_2074">
<rect width="20" height="20.0048" fill="white"/>
</clipPath>
</defs>
</svg>
