<svg width="22" height="22" viewBox="0 0 22 22" fill="none" xmlns="http://www.w3.org/2000/svg">
<path d="M1 3.22222C1 2.63285 1.23413 2.06762 1.65087 1.65087C2.06762 1.23413 2.63285 1 3.22222 1H18.7778C19.3671 1 19.9324 1.23413 20.3491 1.65087C20.7659 2.06762 21 2.63285 21 3.22222V18.7778C21 19.3671 20.7659 19.9324 20.3491 20.3491C19.9324 20.7659 19.3671 21 18.7778 21H3.22222C2.63285 21 2.06762 20.7659 1.65087 20.3491C1.23413 19.9324 1 19.3671 1 18.7778V3.22222Z" stroke="#F9F9F9" stroke-width="1.25" stroke-linecap="round" stroke-linejoin="round"/>
<path d="M7.66699 15.4446V6.55566H12.1114C12.7008 6.55566 13.266 6.78979 13.6828 7.20654C14.0995 7.62329 14.3337 8.18852 14.3337 8.77789C14.3337 9.36726 14.0995 9.93249 13.6828 10.3492C13.266 10.766 12.7008 11.0001 12.1114 11.0001H7.66699" stroke="#F9F9F9" stroke-width="1.25" stroke-linecap="round" stroke-linejoin="round"/>
</svg>
