<svg width="20" height="20" viewBox="0 0 20 20" fill="none" xmlns="http://www.w3.org/2000/svg">
<path d="M17.5 10C17.5 9.77 17.49 9.55 17.47 9.32L19.33 7.91C19.73 7.61 19.84 7.05 19.59 6.61L17.72 3.38C17.6001 3.16818 17.4062 3.00814 17.1754 2.93062C16.9447 2.8531 16.6935 2.86356 16.47 2.96L14.32 3.87C13.95 3.61 13.56 3.38 13.15 3.19L12.86 0.88C12.8 0.38 12.37 0 11.87 0H8.14C7.63 0 7.2 0.38 7.14 0.88L6.85 3.19C6.44 3.38 6.05 3.61 5.68 3.87L3.53 2.96C3.07 2.76 2.53 2.94 2.28 3.38L0.41 6.62C0.16 7.06 0.27 7.61 0.67 7.92L2.53 9.33C2.48855 9.77905 2.48855 10.231 2.53 10.68L0.67 12.09C0.27 12.39 0.16 12.95 0.41 13.39L2.28 16.62C2.53 17.06 3.07 17.24 3.53 17.04L5.68 16.13C6.05 16.39 6.44 16.62 6.85 16.81L7.14 19.12C7.2 19.62 7.63 20 8.13 20H11.86C12.36 20 12.79 19.62 12.85 19.12L13.14 16.81C13.55 16.62 13.94 16.39 14.31 16.13L16.46 17.04C16.92 17.24 17.46 17.06 17.71 16.62L19.58 13.39C19.83 12.95 19.72 12.4 19.32 12.09L17.46 10.68C17.49 10.45 17.5 10.23 17.5 10ZM10.04 13.5C8.11 13.5 6.54 11.93 6.54 10C6.54 8.07 8.11 6.5 10.04 6.5C11.97 6.5 13.54 8.07 13.54 10C13.54 11.93 11.97 13.5 10.04 13.5Z" fill="#F9F9F9"/>
</svg>
