<svg width="18" height="20" viewBox="0 0 18 20" fill="none" xmlns="http://www.w3.org/2000/svg">
<g clip-path="url(#clip0_6006_2)">
<path d="M8.75 0C8.91576 0 9.07473 0.0658481 9.19194 0.183058C9.30915 0.300269 9.375 0.45924 9.375 0.625V2.5H10.625C11.1223 2.5 11.5992 2.69754 11.9508 3.04917C12.3025 3.40081 12.5 3.87772 12.5 4.375V8.75H15.625C16.1223 8.75 16.5992 8.94754 16.9508 9.29917C17.3025 9.65081 17.5 10.1277 17.5 10.625V18.125C17.5 18.6223 17.3025 19.0992 16.9508 19.4508C16.5992 19.8025 16.1223 20 15.625 20H1.875C1.37772 20 0.900806 19.8025 0.549175 19.4508C0.197544 19.0992 0 18.6223 0 18.125V10.395C1.84587e-05 10.0713 0.0838411 9.75311 0.243309 9.47141C0.402778 9.18971 0.63246 8.9541 0.91 8.7875L4.66 6.5375C4.76759 6.47205 4.8815 6.41761 5 6.375V4.375C5 3.87772 5.19754 3.40081 5.54917 3.04917C5.90081 2.69754 6.37772 2.5 6.875 2.5H8.125V0.625C8.125 0.45924 8.19085 0.300269 8.30806 0.183058C8.42527 0.0658481 8.58424 0 8.75 0ZM6.25 6.3775C6.95375 6.6275 7.5 7.29 7.5 8.145V18.75H10V10.625C9.9998 10.2371 10.1199 9.85867 10.3438 9.54189C10.5677 9.2251 10.8843 8.98555 11.25 8.85625V4.37625C11.25 4.21049 11.1842 4.05152 11.0669 3.93431C10.9497 3.8171 10.7908 3.75125 10.625 3.75125H6.875C6.70924 3.75125 6.55027 3.8171 6.43306 3.93431C6.31585 4.05152 6.25 4.21049 6.25 4.37625V6.3775ZM11.875 10C11.7092 10 11.5503 10.0658 11.4331 10.1831C11.3158 10.3003 11.25 10.4592 11.25 10.625V18.75H15.625C15.7908 18.75 15.9497 18.6842 16.0669 18.5669C16.1842 18.4497 16.25 18.2908 16.25 18.125V10.625C16.25 10.4592 16.1842 10.3003 16.0669 10.1831C15.9497 10.0658 15.7908 10 15.625 10H11.875ZM5.30375 7.60875L1.55375 9.85875C1.46092 9.91438 1.38412 9.99316 1.33087 10.0874C1.27763 10.1816 1.24976 10.288 1.25 10.3963V18.125C1.25 18.2908 1.31585 18.4497 1.43306 18.5669C1.55027 18.6842 1.70924 18.75 1.875 18.75H6.25V8.145C6.25002 8.03442 6.22071 7.92581 6.16504 7.83026C6.10938 7.73471 6.02936 7.65564 5.93315 7.60112C5.83694 7.54659 5.72799 7.51857 5.61742 7.51992C5.50685 7.52126 5.39861 7.55191 5.30375 7.60875Z" fill="#F9F9F9"/>
</g>
<defs>
<clipPath id="clip0_6006_2">
<rect width="17.5" height="20" fill="white"/>
</clipPath>
</defs>
</svg>
