<svg width="16" height="18" viewBox="0 0 16 18" fill="none" xmlns="http://www.w3.org/2000/svg">
<g clip-path="url(#clip0_5036_9)">
<path d="M16 12V16C16.0002 16.5046 15.8096 16.9906 15.4665 17.3605C15.1234 17.7305 14.6532 17.9572 14.15 17.995L14 18H2C1.49542 18.0002 1.00943 17.8096 0.639452 17.4665C0.269471 17.1234 0.0428433 16.6532 0.00500011 16.15L0 16V12H16ZM10 14C9.73478 14 9.48043 14.1054 9.29289 14.2929C9.10536 14.4804 9 14.7348 9 15C9 15.2652 9.10536 15.5196 9.29289 15.7071C9.48043 15.8946 9.73478 16 10 16C10.2652 16 10.5196 15.8946 10.7071 15.7071C10.8946 15.5196 11 15.2652 11 15C11 14.7348 10.8946 14.4804 10.7071 14.2929C10.5196 14.1054 10.2652 14 10 14ZM13 14C12.7348 14 12.4804 14.1054 12.2929 14.2929C12.1054 14.4804 12 14.7348 12 15C12 15.2652 12.1054 15.5196 12.2929 15.7071C12.4804 15.8946 12.7348 16 13 16C13.2652 16 13.5196 15.8946 13.7071 15.7071C13.8946 15.5196 14 15.2652 14 15C14 14.7348 13.8946 14.4804 13.7071 14.2929C13.5196 14.1054 13.2652 14 13 14ZM16 6V10H0V6H16ZM14 0C14.5304 0 15.0391 0.210714 15.4142 0.585786C15.7893 0.960859 16 1.46957 16 2V4H0V2C0 1.46957 0.210714 0.960859 0.585786 0.585786C0.960859 0.210714 1.46957 0 2 0H14Z" fill="#F9F9F9"/>
</g>
<defs>
<clipPath id="clip0_5036_9">
<rect width="16" height="18" fill="white"/>
</clipPath>
</defs>
</svg>
