<svg width="20" height="17" viewBox="0 0 20 17" fill="none" xmlns="http://www.w3.org/2000/svg">
<g clip-path="url(#clip0_4891_2)">
<path d="M13.5038 6.28269L8.88846 3.20577C8.77259 3.12846 8.6379 3.08407 8.49876 3.07732C8.35963 3.07058 8.22128 3.10175 8.09847 3.1675C7.97567 3.23324 7.87302 3.3311 7.80149 3.45062C7.72995 3.57015 7.69222 3.70686 7.69231 3.84615V10C7.69222 10.1393 7.72995 10.276 7.80149 10.3955C7.87302 10.5151 7.97567 10.6129 8.09847 10.6787C8.22128 10.7444 8.35963 10.7756 8.49876 10.7688C8.6379 10.7621 8.77259 10.7177 8.88846 10.6404L13.5038 7.56346C13.6094 7.49324 13.6959 7.39804 13.7557 7.28632C13.8156 7.1746 13.8469 7.04982 13.8469 6.92308C13.8469 6.79633 13.8156 6.67156 13.7557 6.55983C13.6959 6.44811 13.6094 6.35291 13.5038 6.28269ZM9.23077 8.5625V5.28846L11.6904 6.92308L9.23077 8.5625ZM18.4615 0H1.53846C1.13044 0 0.739122 0.162087 0.450605 0.450605C0.162087 0.739122 0 1.13044 0 1.53846V12.3077C0 12.7157 0.162087 13.107 0.450605 13.3955C0.739122 13.6841 1.13044 13.8462 1.53846 13.8462H18.4615C18.8696 13.8462 19.2609 13.6841 19.5494 13.3955C19.8379 13.107 20 12.7157 20 12.3077V1.53846C20 1.13044 19.8379 0.739122 19.5494 0.450605C19.2609 0.162087 18.8696 0 18.4615 0ZM18.4615 12.3077H1.53846V1.53846H18.4615V12.3077ZM20 16.1538C20 16.3579 19.919 16.5535 19.7747 16.6978C19.6304 16.842 19.4348 16.9231 19.2308 16.9231H0.769231C0.565218 16.9231 0.369561 16.842 0.225302 16.6978C0.0810437 16.5535 0 16.3579 0 16.1538C0 15.9498 0.0810437 15.7542 0.225302 15.6099C0.369561 15.4657 0.565218 15.3846 0.769231 15.3846H19.2308C19.4348 15.3846 19.6304 15.4657 19.7747 15.6099C19.919 15.7542 20 15.9498 20 16.1538Z" fill="#F9F9F9"/>
</g>
<defs>
<clipPath id="clip0_4891_2">
<rect width="20" height="16.9231" fill="white"/>
</clipPath>
</defs>
</svg>
