<svg width="924" height="164" viewBox="0 0 924 164" fill="none" xmlns="http://www.w3.org/2000/svg">
<g clip-path="url(#clip0_5531_17)">
<path d="M134.147 161.189H37.0831C37.0831 161.189 31.4586 154.418 47.1581 138.705C62.1886 123.681 82.4273 114.439 93.3829 110.548C106.413 105.934 134.167 99.1555 147.806 111.394C160.085 122.418 151.266 139.217 147.171 145.844C140.44 156.773 134.147 161.189 134.147 161.189Z" fill="#F9F9F9"/>
<path d="M118.802 87.1624C151.075 88.746 168.153 115.647 158.501 134.513C149.266 152.575 138.761 161.189 138.761 161.189H178.672C186.242 161.189 189.382 154.984 186.242 149.947L99.9696 4.87651C96.1813 -1.42377 89.0004 -1.03469 85.0756 5.25194L35.9907 88.1453C35.9907 88.1453 83.1302 51.586 121.328 57.818C146.372 61.9203 118.802 87.1624 118.802 87.1624Z" fill="#F9F9F9"/>
<path d="M117.382 87.0532C117.382 87.0532 130.536 71.6063 122.795 67.2787C116.993 64.0295 99.9014 66.7394 76.1474 79.0465C50.5709 92.2955 -10.6026 138.165 2.20272 161.401C2.20272 161.401 2.53719 147.653 20.3732 131.51C41.1511 112.684 60.366 97.0053 101.157 88.7051C106.843 87.5447 112.365 86.9303 117.382 87.0532Z" fill="#F9F9F9"/>
<path d="M274.849 77.7086C279.49 79.2376 281.818 82.3911 281.818 87.1829C281.818 91.5105 280.057 94.5207 276.548 96.2135C273.026 97.9132 268.446 98.7596 262.835 98.7596H231.286V76.1045H259.518C265.729 76.1045 270.835 76.6369 274.849 77.7086ZM276.234 117.503C281.77 119.503 284.521 123.183 284.521 128.514C284.521 134.848 281.668 139.121 275.968 141.353C272.842 142.554 268.446 143.162 262.835 143.162H231.286V115.77H263.265C268.842 115.811 273.163 116.391 276.234 117.503ZM205.668 58.2617V161.012H263.866C270.432 161.012 276.521 160.547 282.125 159.619C287.736 158.677 292.596 156.971 296.726 154.452C300.391 152.281 303.435 149.578 305.879 146.363C309.715 141.537 311.626 136.077 311.626 129.988C311.626 124.09 309.947 119.06 306.616 114.93C303.278 110.8 298.316 107.783 291.756 105.879C296.057 104.104 299.319 102.159 301.517 100.022C305.463 96.2135 307.442 91.1624 307.442 84.8962C307.442 78.8075 305.463 73.5926 301.517 69.2104C294.951 62.0978 283.797 58.4528 268.064 58.2685L205.668 58.2617ZM323.852 161.012V58.2617H350.52V161.012H323.852ZM479.413 129.299H505.031C505.836 133.981 507.44 137.496 509.829 139.81C514.177 144.042 521.631 146.165 532.204 146.165C538.553 146.165 543.686 145.599 547.631 144.486C555.126 142.35 558.88 138.377 558.88 132.568C558.88 129.182 557.023 126.555 553.296 124.677C549.59 122.875 543.74 121.278 535.781 119.892L522.191 117.456C508.833 115.032 499.597 112.404 494.485 109.579C485.823 104.828 481.502 97.4149 481.502 87.3331C481.502 78.1318 485.679 70.4936 494.048 64.405C502.423 58.3163 514.696 55.2788 530.901 55.2788C544.436 55.2788 555.979 58.1525 565.542 63.8794C575.091 69.6199 580.102 77.9543 580.579 88.8757H554.784C554.32 82.6983 550.948 78.3093 544.675 75.695C540.484 73.9817 535.297 73.1011 529.071 73.1011C522.17 73.1011 516.641 74.2274 512.525 76.4594C508.403 78.6983 506.334 81.8041 506.334 85.7972C506.334 89.4764 508.375 92.2067 512.437 94.0292C515.065 95.2374 520.635 96.6572 529.174 98.2749L551.296 102.527C561.01 104.391 568.32 106.876 573.255 109.988C580.928 114.828 584.757 121.811 584.757 130.964C584.757 140.35 580.272 148.158 571.296 154.356C562.334 160.554 549.638 163.66 533.276 163.66C516.546 163.66 503.386 160.609 493.809 154.486C484.219 148.377 479.413 139.981 479.413 129.299ZM587.48 76.4526V58.2617H691.534V76.4526H653.097V161.012H626.087V76.4526H587.48ZM754.639 122.179H722.046L738.598 81.7563L754.639 122.179ZM705.923 161.012L714.803 139.885H762.134L770.414 161.012H799.506L754.038 58.2617H723.697L677.875 161.012H705.923ZM886.863 77.9134C892.023 80.0499 894.624 84.2341 894.624 90.4661C894.624 96.2272 891.928 100.084 886.59 102.036C883.58 103.142 879.047 103.708 873 103.708H842.591V76.1045H873.792C879.594 76.1045 883.955 76.7052 886.863 77.9134ZM816.365 58.2617V161.012H842.591V120.718H868.85L892.556 161.012H923.539L897.238 117.408C905.914 117.094 914.105 107.974 917.184 103.251C920.262 98.5343 921.525 92.4115 921.525 87.5515C921.525 83.4969 920.719 79.8997 919.109 76.7393C917.484 73.5926 915.266 70.6984 912.487 68.0978C909.095 64.9374 904.999 62.5483 900.146 60.9169C895.3 59.2924 888.372 58.4118 879.361 58.2685L816.365 58.2617ZM416.547 55.231C386.813 55.231 362.677 79.3536 362.677 109.108C362.677 138.862 386.807 162.971 416.547 162.971C446.301 162.971 470.423 138.862 470.423 109.108C470.423 79.3536 446.301 55.231 416.547 55.231ZM428.752 112.848C425.462 113.217 422.294 115.367 421.216 120.384L416.547 162.971L411.175 120.753C411.175 116.439 408.656 114.282 403.626 113.217L363.38 108.548L403.626 103.449C407.946 102.459 411.175 99.6606 411.175 95.9951L416.192 56.0979L420.861 96.3569C420.861 99.4899 423.721 102.459 428.397 103.449L470.423 109.108L428.752 112.848Z" fill="#F9F9F9"/>
</g>
<defs>
<clipPath id="clip0_5531_17">
<rect width="924" height="164" fill="white"/>
</clipPath>
</defs>
</svg>
