<svg width="1024" height="319" viewBox="0 0 1024 319" fill="none" xmlns="http://www.w3.org/2000/svg">
<path d="M384.129 178.429L436.771 14.5832H375.159L344.075 111.65L343.687 108.024L343.509 104.387L342.964 100.97L342.555 97.3443L341.779 93.8964L341.015 90.4485L340.071 87.0319L339.118 83.6155L337.955 80.1571L336.854 76.9187L335.314 73.5022L333.983 70.2743L332.243 67.1931L330.535 63.9548L328.606 60.685L326.72 57.6458L322.696 52.1124L318.357 46.9562L313.746 42.2296L308.61 37.6079L303.465 33.4054L297.931 29.5906L292.02 26.1742L285.89 22.9882L279.591 20.0852L273.125 17.591L266.449 15.4635L259.616 13.6295L252.343 12.2671L245.101 10.9571L237.671 10.1711L230.23 9.81503L222.391 9.57373L214.583 9.81503L206.733 10.3495L198.748 11.2823L190.741 12.4456L182.745 14.0071L174.549 15.883L166.542 18.1677L158.336 20.8401L150.141 23.6697L142.103 27.1386L133.907 30.7542L125.869 34.7681L117.894 39.1593L110.055 43.739L102.258 48.8743L94.6176 54.1982L87.3549 59.7421L80.3332 65.4538L73.6364 71.4065L67.1493 77.4535L61.0499 83.8044L55.1496 90.2706L49.8047 96.9465L44.6381 103.622L39.681 110.319L35.3108 117.351L31.1292 124.268L27.304 131.29L23.8875 138.531L20.6283 145.616L17.9349 152.847L15.493 159.89L13.3655 167.132L11.8564 174.373L10.5359 181.447L9.60319 188.689L9.16302 195.763L8.99561 202.628L9.16302 209.523L9.98047 216.367L11.0809 223.001L12.4118 229.718L14.3087 236.174L16.8135 242.284L19.4859 248.604L22.7138 254.535L26.3294 260.247L30.1651 265.592L34.3152 270.538L38.7483 275.275L43.5062 279.656L48.4738 283.691L53.6195 287.537L59.1425 290.964L64.8646 294.171L70.8068 297.022L76.8853 299.516L83.3514 301.8L89.8491 303.718L96.4935 305.227L103.4 306.579L110.243 307.732L117.506 308.33L124.758 308.697H132.01L139.43 308.477L147.112 307.911L154.71 307.166L162.34 305.825L169.959 304.504L177.798 302.587L185.606 300.449L193.235 297.986L201.053 295.324L208.882 292.075L216.48 288.879L224.109 285.032L231.739 281.05L239.389 276.648V264.449L232.892 267.876L226.572 270.926L220.096 273.787L213.598 276.418L206.954 278.702L200.498 280.83L194.011 282.748L187.502 284.288L181.015 285.598L174.549 286.594L168.24 287.537L161.742 287.904L155.475 288.281H149.365L143.057 288.103L137.156 287.537L131.067 286.741L125.324 285.808L119.613 284.645L114.079 283.146L108.567 281.218L103.201 279.331L98.0865 276.994L93.1189 274.531L88.3191 271.712L83.7707 268.82L79.1699 265.592L74.9989 261.945L70.964 258.14L67.3275 254.137L63.7327 249.935L60.4839 245.355L57.2351 240.377L54.5627 235.105L52.0999 229.718L49.9934 224.175L48.2956 218.463L46.9542 212.699L45.969 206.83L45.4345 200.919L45.0572 194.788V188.689L45.4345 182.621L46.1576 176.291L47.3315 170.202L48.6624 163.883L50.3812 157.584L52.3199 151.275L54.7723 145.218L57.2351 138.93L60.2953 132.778L63.5441 126.699L66.9606 120.6L70.964 114.647L74.9989 108.778L79.3795 103.067L84.148 97.3446L89.1155 91.7903L94.4185 86.2462L99.9414 80.9119L105.664 75.7872L111.763 70.8405L118.082 66.0616L124.57 61.4819L131.224 57.0907L138.089 53.0873L144.974 49.2516L152.038 45.8141L158.913 42.7749L165.903 39.8929L173.009 37.472L180.062 35.135L187.125 33.238L194.199 31.5088L201.053 30.3769L208.106 29.2661L214.971 28.4903L221.825 28.1028H228.522L235.176 28.26L241.664 28.6475L248.14 29.4233L254.46 30.5656L260.517 31.8966L266.638 33.6573L272.36 35.5331L278.113 37.8283L283.626 40.2912L288.981 43.1941L293.938 46.2019L298.696 49.6394L303.465 53.4646L307.657 57.4575L311.87 61.6285L315.695 66.2293L319.08 71.2178L321.951 75.5985L324.425 79.9792L326.563 84.3704L328.428 89.1387L329.969 93.7081L331.279 98.466L332.243 103.455L333.186 108.401L333.773 113.526L333.983 118.714L334.182 124.048L333.983 129.393L333.596 134.926L333.008 140.428L332.244 145.962L331.279 151.684L329.969 157.815L328.23 163.883L326.333 169.825L324.226 175.526L321.952 181.091L319.259 186.593L316.419 191.948L313.359 197.325L309.953 202.428L306.316 207.606L302.512 212.552L298.309 217.499L293.719 222.246L288.982 227.046L283.993 231.636L278.649 236.174L281.143 236.772L283.627 237.17L286.142 237.506L288.762 237.914L291.644 238.323L294.505 238.69H297.366H300.206H304.409L308.401 238.491L312.604 238.104L316.607 237.318L319.479 236.773L322.518 236.176L325.39 235.442L328.23 234.478L330.934 233.535L333.774 232.361L336.436 231.25L339.119 229.888L341.781 228.568L344.275 227.237L346.738 225.706L349.232 224.009L351.716 222.458L353.979 220.718L356.295 218.853L358.591 216.935L360.655 215.017L362.783 212.942L364.858 210.825L366.807 208.739L368.683 206.444L370.59 204.149L372.288 201.864L373.818 199.402L375.579 196.907L376.889 194.403L378.387 191.95L379.739 189.288L380.903 186.595L382.024 183.954L383.166 181.093L384.129 178.429Z" fill="#F9F9F9"/>
<path d="M468.025 14.1426L396.732 238.692H458.323L486.155 150.527L486.539 149.974V149.591L487.874 145.384L489.041 142.759L490.546 140.088L492.05 137.586L493.8 135.099L495.504 132.781L497.577 130.708L499.879 128.774L502.182 126.916L504.485 125.197L507.141 123.646L509.797 122.526L512.483 121.359L515.323 120.407L518.378 119.655L521.464 119.117L524.519 118.918L526.008 119.117L527.359 119.455L528.679 119.824L530.015 120.407L531.197 121.144L532.287 121.927L533.469 122.679L534.375 123.646L535.326 124.797L536.14 125.749L536.862 127.085L537.461 128.236L537.86 129.556L538.228 130.892L538.428 132.227V133.578L538.228 136.265L537.645 138.737L505.238 238.691H567.274L603.826 124.797L604.425 123.093L604.978 121.358L605.331 119.455L605.545 117.536L606.098 115.417L606.528 113.145L606.666 110.704L606.881 108.402L606.666 104.779L606.098 101.14L605.331 97.9318L604.21 94.662L602.69 91.6069L600.971 88.7515L598.898 85.8961L596.565 83.4552L594.278 81.1064L591.622 79.0339L588.782 77.2838L585.727 75.5951L582.487 74.4591L579.233 73.5073L575.809 72.7245L572.171 72.3409H570.452L568.947 71.9573H568.195H567.611H567.273H566.797L562.069 72.1412L557.479 72.5248L553.119 73.0931L548.513 73.8914L544.169 74.8125L539.916 76.1635L535.756 77.453L531.58 79.2031L527.543 81.1067L523.69 83.0257L519.898 85.2977L516.305 87.6158L512.667 90.2717L509.428 92.9582L506.219 95.9979L503.118 99.0375L529.661 14.1427L468.025 14.1426ZM202.379 70.8516L198.357 70.9743L194.197 71.2046L190.175 71.5575L186.168 72.1258L182.161 72.5251L178.17 73.3233L174.547 74.0598L170.878 74.812L167.301 75.9634L163.847 77.1148L160.608 78.2815L157.353 79.6018L154.129 80.9066L151.059 82.6414L148.004 84.1919L145.179 85.896L142.308 87.8149L139.438 89.6878L136.766 91.6068L134.31 93.6946L131.639 95.8285L129.305 98.1005L126.865 100.173L124.577 102.491L122.489 104.947L120.156 107.634L117.899 110.474L115.612 113.529L113.324 116.983L111.022 120.606L169.389 126.916L171.845 123.492L174.317 120.406L177.018 117.935L179.49 115.832L181.409 114.65L183.313 113.329L185.815 112.025L188.655 110.842L191.695 109.952L194.765 109.169L197.789 108.631L201.059 108.202H204.483L207.691 108.401L209.625 108.631L211.529 109.169L213.417 109.522L215.536 110.32L217.639 111.088L219.727 112.025L221.83 112.961L223.749 113.898L223.918 115.832L224.118 117.736L223.918 119.655L223.749 121.527L223.365 123.492L222.797 125.196L221.999 126.916L221.231 128.651L215.351 130.692L209.425 132.473L203.669 133.962L197.973 135.283L194.765 136.035L190.574 137.217L185.415 138.353L179.49 139.504L176.45 140.256L173.395 140.809L169.956 141.408L166.318 142.16L162.526 142.759L158.719 143.481L154.497 144.264L150.321 145.016L142.876 146.536L136.014 148.255L129.566 150.174L123.625 152.246L118.267 154.549L113.324 157.051L108.749 159.538L104.712 162.378L101.304 165.433L98.0951 168.504L94.9787 171.728L92.154 175.166L91.0026 177.07L89.667 179.004L88.7306 180.893L87.5638 182.996L86.5966 185.237L85.6601 187.417L84.8773 189.889L84.1557 192.376L83.5261 194.786L83.2039 197.104L82.8203 199.391L82.6057 201.694V203.767L82.8203 205.854L82.9893 207.958L83.3579 210.045L83.9262 211.964L84.5094 213.868L85.0777 215.818L85.876 217.675L86.8278 219.456L87.7183 221.099L88.8697 222.649L90.0364 224.399L91.372 225.934L92.7383 227.423L94.212 228.959L95.9468 230.294L97.6815 231.645L99.3856 232.766L101.489 233.963L103.561 234.854L105.895 235.806L108.366 236.542L111.222 237.172L114.077 237.755L117.332 238.093L120.955 238.492L124.762 238.676H128.753H134.096L139.239 238.492L144.566 237.909L149.724 236.957L154.713 235.975L159.656 234.685L164.385 233.119L168.837 231.415L171.492 230.494L173.933 229.297L176.635 227.976L179.491 226.457L183.697 224.184L187.873 221.667L192.048 218.857L196.285 215.419L195.702 217.276L195.333 219.026L195.118 220.715V222.649V225.704L195.701 228.775L196.101 230.11L196.638 231.415L197.207 232.766L197.974 234.117V234.486H209.074H239.378H251.936H257.462L256.91 233.119L256.541 231.646L256.203 229.88L255.973 228.191L255.804 226.288L255.973 224.4L256.203 222.465L256.756 220.546L262.067 203.567L266.826 188.538L271.248 174.982L275.039 163.131L278.478 152.646L281.349 143.481L283.989 135.498L286.139 128.651L286.707 126.686L287.029 124.982L287.429 123.094L287.628 121.144L287.812 117.936V115.832L287.628 111.856L287.029 107.819L286.293 103.996L284.957 100.419L283.453 96.9346L281.488 93.5112L279.415 90.4562L276.959 87.6161L274.303 84.7607L271.432 82.4426L268.362 80.1552L265.138 78.2823L261.684 76.7318L258.061 75.4116L254.269 74.4597L250.247 73.7075L246.409 73.0936L242.049 72.5254L237.29 71.9728L232.301 71.5586L227.189 71.2057L221.831 70.9754L216.289 70.8527H210.578H206.571L202.379 70.8516ZM929.573 70.8516L925.582 70.9743L921.36 71.2046L917.368 71.5575L913.346 71.9717L909.34 72.5243L905.363 73.3225L901.556 74.059L898.117 75.0262L894.479 75.9627L891.071 77.114L887.847 78.2807L884.347 79.601L881.323 80.9059L878.283 82.4411L875.228 84.1911L872.373 85.8952L869.502 87.6146L866.616 89.5029L864.006 91.4371L861.458 93.5096L858.848 95.5975L856.376 97.9309L854.058 100.034L851.755 102.291L849.468 104.947L847.196 107.633L844.924 110.473L842.821 113.528L840.533 116.982L838.2 120.605L896.413 126.915L899.085 123.491L901.556 120.406L903.997 117.934L906.699 115.831L908.372 114.649L910.337 113.329L912.993 112.024L915.818 110.842L918.689 109.951L921.744 109.168L924.998 108.631L928.237 108.201H931.477L934.9 108.4L938.538 109.168L942.714 110.32L944.863 111.088L946.92 111.856L949.024 112.761L950.927 113.744L951.158 115.647V117.52V119.654L950.927 121.527L950.544 123.492L949.961 125.196L949.208 126.916L948.456 128.65L942.361 130.692L936.635 132.473L930.909 133.962L925.198 135.282L921.744 136.034L917.569 137.217L912.61 138.353L906.7 139.504L903.645 140.256L900.421 140.809L896.967 141.408L893.528 142.16L889.69 142.759L885.683 143.48L881.707 144.263L877.516 145.015L870.055 146.535L863.024 148.255L856.714 150.174L850.819 152.246L845.293 154.549L840.288 157.051L835.959 159.538L831.937 162.378L828.298 165.433L825.059 168.504L822.204 171.727L819.318 175.166L817.998 177.07L816.877 179.004L815.695 180.892L814.774 182.996L813.806 185.237L812.824 187.417L811.918 189.888L811.105 192.375L810.736 194.786L810.183 197.104L809.984 199.391L809.769 201.694V203.766L809.984 205.854L810.183 207.957L810.567 210.045L810.92 211.964L811.519 213.868L812.302 215.817L813.069 217.675L814.005 219.456L814.957 221.098L815.909 222.649L817.045 224.399L818.58 225.934L819.885 227.423L821.451 228.958L822.955 230.294L824.705 231.645L826.609 232.766L828.467 233.963L830.815 234.853L833.057 235.805L835.513 236.542L838.2 237.171L841.27 237.755L844.509 238.093L848.132 238.492L851.755 238.676H855.961H861.089L866.431 238.492L871.589 237.909L876.732 236.957L881.906 235.974L886.649 234.685L891.439 233.119L895.999 231.415L898.685 230.494L901.157 229.296L903.843 227.976L906.699 226.456L910.675 224.184L915.096 221.667L919.256 218.857L923.478 215.418L922.91 217.276L922.51 219.026L922.327 220.715L922.112 222.649L922.327 225.704L922.91 228.774L923.278 230.11L923.877 231.415L924.43 232.766L925.198 234.117V234.485H936.051H966.555H979.159H984.701L984.148 233.119L983.565 231.415L983.335 229.726L982.951 227.853V225.935L983.166 224L983.335 222.25L983.78 220.546L989.276 203.567L994.035 188.538L998.272 174.982L1002.08 163.131L1005.29 152.646L1008.16 143.481L1010.63 135.498L1012.92 128.651L1013.88 124.982L1014.62 121.144L1014.8 117.935L1015 115.832L1014.8 111.856L1014.27 107.819L1013.28 103.996L1012.15 100.419L1010.63 96.9344L1008.73 93.5109L1006.64 90.456L1004.15 87.6159L1001.45 84.7605L998.624 82.4424L995.569 80.155L992.299 78.2821L988.707 76.7315L985.083 75.4113L981.461 74.4595L977.438 73.7073L973.432 73.0934L969.056 72.5251L964.497 71.9726L959.523 71.5583L954.349 71.2054L949.022 70.9751L943.496 70.8525H937.739H933.778L929.573 70.8516ZM648.637 71.9569L611.839 186.066L611.21 187.954L610.888 189.889L610.519 191.593L610.304 193.481L609.736 195.753L609.367 198.04L608.999 200.143V202.431L609.198 206.069L609.736 209.523L610.519 212.947L611.67 216.186L612.991 219.195L614.71 222.25L616.798 224.967L618.87 227.423L621.357 229.726L624.044 231.814L626.884 233.733L629.969 235.237L633.209 236.419L636.448 237.31L639.887 238.093L643.464 238.323L645.029 238.692H646.918H647.332H647.685H648.253H648.437H649.067H653.626L658.17 238.323L662.561 237.755L666.936 236.772L671.342 235.805L675.548 234.684L679.739 233.119L683.915 231.645L687.937 229.726L691.76 227.838L695.567 225.535L699.374 223.232L702.798 220.714L706.267 218.105L709.69 215.203L712.73 212.163L705.653 234.469H766.707L819.501 71.9566H757.542L729.126 160.29L728.773 161.426L727.606 165.264L726.439 168.074L725.15 170.791L723.63 173.262L721.865 175.719L719.992 178.037L717.858 180.109L715.801 182.243L713.498 183.947L711.026 185.667L708.324 187.202L705.653 188.307L702.798 189.504L699.958 190.41L697.072 191.193L694.032 191.592L690.839 191.945L689.457 191.715L688.137 191.346L686.786 190.963L685.45 190.41L684.314 189.888L683.178 189.075L682.211 188.307L681.229 187.416L680.292 186.219L679.556 185.236L678.987 183.947L678.419 182.795L677.867 181.46L677.652 179.909L677.437 178.574L677.268 177.069L677.652 174.582L678.22 172.08L710.229 71.9564L648.637 71.9569ZM212.297 158.924L209.426 168.688L208.474 171.328L207.338 173.846L206.187 176.302L205.066 178.574L203.669 180.892L202.379 182.996L200.844 185.053L199.309 186.818L197.789 188.538L196.285 190.242L194.351 191.715L192.447 193.465L190.574 195.016L188.287 196.336L185.815 197.656L183.313 199.007L181.409 199.944L179.49 200.712L177.402 201.495L175.268 202.063L173.196 202.616L171.108 203.015L166.702 203.767L162.526 204.151H160.224L157.921 203.951L156.017 203.567L154.329 203.214L152.809 202.616L151.443 201.863L150.322 200.712L148.986 199.392L148.219 198.225L147.451 196.905L146.883 195.554L146.499 194.034L146.3 192.376V190.825L146.699 189.075L147.282 187.187L147.835 185.683L148.756 184.147L149.723 182.797L150.706 181.246L152.041 179.91L153.346 178.575L154.712 177.454L156.201 176.303L157.921 175.351L160.055 174.215L162.526 173.263L165.167 172.081L171.676 169.993L179.49 167.706L181.409 167.138L183.696 166.585L187.319 165.817L190.958 164.896L194.519 163.883L198.188 163.131L201.796 162.194L205.219 161.027L208.888 160.076L212.297 158.924ZM939.49 158.924L936.635 168.688L935.299 172.326L933.779 175.903L931.83 179.342L929.788 182.612L927.439 185.682L924.998 188.538L922.112 191.193L919.257 193.665L916.002 195.753L912.794 197.856L909.34 199.575L905.578 201.126L901.925 202.247L897.887 203.214L893.896 203.95L889.689 204.364H887.218H885.13L883.242 203.95L881.522 203.382L880.003 202.814L878.652 201.862L877.331 200.711L876.18 199.39L875.428 198.224L874.629 196.903L874.107 195.552L873.708 194.033L873.539 192.375V190.824L873.892 189.074L874.475 187.186L875.028 185.681L875.795 184.146L876.731 182.795L877.883 181.245L879.05 179.909L880.385 178.573L881.905 177.453L883.425 176.301L885.129 175.35L887.217 174.214L889.519 173.262L892.359 172.08L898.684 169.992L906.698 167.704L908.602 167.136L910.858 166.584L914.497 165.816L918.12 164.895L921.743 163.881L925.366 163.129L928.804 162.193L932.427 161.026L936.05 160.074L939.49 158.924Z" fill="#F9F9F9"/>
<path d="M630.342 293.602V286.601H647.896V301.43V303.201V309.039H641.399V306.586L638.925 307.729L636.263 308.693L634.89 309.039L633.392 309.29L632.061 309.426H630.719L627.471 309.29L624.63 308.85L623.299 308.473L621.958 307.907L620.805 307.362L619.663 306.775L618.5 306.031L617.378 305.224L616.414 304.511L615.45 303.526L614.727 302.363L613.93 301.43L613.197 300.277L612.621 298.967L611.447 296.473L610.671 293.601L610.304 290.96L610.137 287.9L610.304 284.85L610.88 281.832L611.666 279.086L612.83 276.414L613.531 275.272L614.328 274.161L615.093 273.05L616.036 272.086L617 271.09L618.163 270.147L619.285 269.382L620.616 268.816L622.513 267.883L624.808 267.076L627.47 266.699H630.132H632.06L633.779 266.94L635.288 267.076L636.849 267.475L638.348 267.884L639.669 268.387L640.832 269.215L641.985 269.948L642.917 270.724L643.871 271.719L644.636 272.6L645.401 273.794L645.998 274.947L646.564 276.048L646.92 277.389L647.329 278.93L640.454 280.271L639.878 278.699L639.113 277.389L638.149 276.278L637.006 275.272L635.508 274.528L633.957 273.962L632.238 273.606H630.131H628.821L627.669 273.794L626.338 274.161L625.195 274.528L624.043 275.105L623.099 275.671L622.146 276.415L621.36 277.222L620.427 278.385L619.83 279.507L619.285 280.67L618.866 281.969L618.499 283.499L618.331 284.851L618.164 286.36V288.1V289.599L618.331 291.16L618.499 292.46L618.866 293.969L619.285 295.321L619.83 296.474L620.615 297.637L621.36 298.758L622.146 299.513L623.1 300.278L624.043 300.844L625.196 301.431L626.338 301.808L627.669 302.175L628.822 302.364H630.132L632.238 302.175L633.957 302.018L635.508 301.808L637.007 301.431L638.149 300.844L639.291 300.278L640.287 299.513L641.398 298.758V293.602L630.342 293.602ZM562.63 288.278V286.947L562.829 285.396L563.206 284.054L563.385 282.524L564.527 279.506L565.89 276.655L566.634 275.272L567.42 273.962L568.353 272.851L569.495 271.719L570.658 270.724L571.801 269.78L573.121 269.036L574.263 268.26L576.37 267.684L578.466 267.077L580.541 266.699H583.046H585.362L587.416 267.077L589.522 267.684L591.451 268.386L593.117 269.214L594.846 270.325L596.418 271.467L597.896 273.05L599.08 274.527L600.202 276.047L601.166 277.755L602.13 279.663L602.696 281.832L603.063 283.918L603.461 285.94V288.099V290.394L603.063 292.459L602.696 294.555L602.13 296.473L601.166 298.38L600.202 300.12L599.227 301.807L597.896 303.337L596.565 304.658L594.846 305.831L593.348 306.974L591.451 307.906L589.522 308.472L587.416 309.038L585.362 309.426H583.046H580.929L578.833 309.038L576.747 308.472L574.871 307.906L572.932 306.974L571.224 306.031L569.694 304.658L568.353 303.337L567.053 301.807L565.89 300.277L564.926 298.569L564.15 296.672L563.594 294.754L563.028 292.7L562.829 290.541L562.63 288.278ZM571.046 288.099L571.224 290.761L571.8 293.224L572.167 294.555L572.733 295.718L573.289 296.882L574.075 297.804L574.872 298.758L575.804 299.722L576.747 300.455L577.89 301.084L579.053 301.608L580.164 302.017L581.705 302.174L583.046 302.363L584.576 302.174L585.939 302.017L587.248 301.608L588.38 301.084L589.523 300.455L590.508 299.722L591.241 298.758L592.195 297.804L592.782 296.672L593.348 295.54L593.882 294.366L594.281 293.224L594.847 290.541L595.077 287.9L594.847 285.207L594.281 282.744L593.882 281.424L593.348 280.271L592.782 279.328L592.195 278.175L591.45 277.221L590.507 276.414L589.522 275.67L588.38 275.104L587.248 274.528L585.938 274.161L584.576 273.962L583.045 273.794L581.515 273.962L580.163 274.161L578.832 274.528L577.701 275.104L576.747 275.67L575.594 276.414L574.871 277.389L574.075 278.384L573.289 279.328L572.733 280.449L572.167 281.581L571.8 282.744L571.224 285.395L571.046 288.099ZM444.761 308.85V267.265H451.835L470.909 295.152V267.265H478.549V308.85H471.076L452.39 281.832V308.85H444.761ZM400.158 308.85V267.265H408.374V283.698H426.85V267.265H434.847V308.85H426.85V290.761H408.374V308.85H400.158ZM318.738 308.85V267.265H348.648V274.36H326.912V283.499H347.128V290.541H326.912V301.807H349.434V308.85H318.738ZM664.664 308.85V291.327L649.982 267.265H659.519L668.867 283.698L678.215 267.265H687.563L672.86 291.526V308.85H664.664ZM533.831 308.85V267.684H542.058V301.807H560.356V308.85H533.831ZM486.534 288.278V286.947L486.723 285.395L486.922 284.054L487.309 282.524L488.274 279.506L489.605 276.655L490.548 275.272L491.313 273.962L492.266 272.851L493.43 271.719L494.331 270.723L495.704 269.78L496.846 269.036L498.167 268.26L500.084 267.684L502.18 267.076L504.486 266.699H506.938H509.223L511.329 267.076L513.394 267.684L515.322 268.386L517.062 269.214L518.749 270.325L520.311 271.467L521.799 273.049L522.962 274.527L524.073 276.047L525.058 277.755L525.803 279.662L526.599 281.832L526.955 283.917L527.364 285.94V288.099V290.394L526.955 292.459L526.599 294.555L525.803 296.472L525.058 298.38L524.073 300.119L522.962 301.807L521.799 303.337L520.311 304.657L518.749 305.831L517.062 306.973L515.322 307.906L513.394 308.472L511.329 309.038L509.223 309.426H506.938H504.853L502.558 309.038L500.671 308.472L498.753 307.906L496.846 306.973L495.106 306.03L493.597 304.657L492.266 303.337L490.925 301.807L489.803 300.277L488.818 298.568L488.095 296.672L487.309 294.754L486.922 292.7L486.534 290.541L486.534 288.278ZM494.929 288.099L495.107 290.761L495.705 293.224L496.082 294.555L496.658 295.718L497.193 296.881L498.021 297.804L498.754 298.757L499.655 299.722L500.672 300.455L501.615 301.084L502.946 301.608L504.078 302.017L505.629 302.174L506.939 302.363L508.458 302.174L509.8 302.017L511.131 301.608L512.284 301.084L513.395 300.455L514.401 299.722L515.145 298.757L515.91 297.804L516.686 296.672L517.23 295.54L517.817 294.366L518.184 293.224L518.75 290.541L518.949 287.9L518.75 285.207L518.184 282.744L517.817 281.423L517.23 280.27L516.686 279.327L516.13 278.174L515.145 277.221L514.4 276.414L513.394 275.669L512.283 275.104L511.131 274.527L509.8 274.16L508.458 273.961L506.939 273.794L505.409 273.961L504.078 274.16L502.736 274.527L501.615 275.104L500.462 275.669L499.508 276.414L498.754 277.388L497.79 278.384L497.192 279.327L496.658 280.449L496.082 281.581L495.704 282.744L495.107 285.395L494.929 288.099ZM383.725 293.601L392.119 296.074L391.742 297.804L391.009 299.355L390.422 300.665L389.646 302.017L388.682 303.337L387.749 304.249L386.785 305.224L385.642 306.209L384.5 306.973L383.169 307.728L381.838 308.325L380.497 308.692L378.977 309.038L377.458 309.29L375.959 309.426H374.198H371.924L369.996 309.29L368.109 308.692L366.191 308.105L364.473 307.361L362.785 306.397L361.213 305.223L359.914 303.944L358.593 302.362L357.441 300.664L356.466 298.757L355.533 296.881L354.946 294.753L354.548 292.458L354.17 290.394V288.099L354.359 285.94L354.548 283.697L354.946 281.58L355.722 279.505L356.466 277.587L357.441 275.669L358.594 273.961L359.914 272.483L361.434 271.089L362.953 269.947L364.651 269.035L366.37 268.061L368.309 267.474L370.415 267.075L372.49 266.698H374.607H376.672L378.391 266.939L380.319 267.264L381.838 267.882L383.547 268.385L384.888 269.213L386.429 270.146L387.529 271.089L389.101 272.598L390.233 274.359L391.166 276.413L392.119 278.698L383.358 280.825L382.96 279.327L382.205 277.975L381.272 276.654L380.119 275.669L378.788 274.946L377.458 274.359L375.959 273.96L374.198 273.793L373.066 273.96H371.924L370.761 274.359L369.818 274.715L368.853 275.102L367.921 275.668L367.166 276.276L366.37 277.219L365.426 278.382L364.651 279.504L364.085 280.824L363.54 282.386L363.141 283.696L362.785 285.205L362.597 286.735V288.275V289.753L362.785 291.325L363.141 292.698L363.54 294.165L364.085 295.538L364.651 296.67L365.426 297.98L366.37 298.965L367.166 299.72L367.921 300.453L368.853 301.082L369.818 301.428L370.761 301.805L371.735 302.172L372.867 302.361H373.989L375.718 302.172L377.269 301.805L378.788 301.249L380.119 300.275L381.272 298.965L382.205 297.435L382.96 295.716L383.725 293.601ZM290.473 308.85V274.36H278.641V267.265H310.71V274.36H298.69V308.85H290.473Z" fill="#F9F9F9"/>
</svg>
