<svg width="81" height="94" viewBox="0 0 81 94" fill="none" xmlns="http://www.w3.org/2000/svg">
<g clip-path="url(#clip0_13414_21)">
<mask id="mask0_13414_21" style="mask-type:luminance" maskUnits="userSpaceOnUse" x="0" y="0" width="81" height="94">
<path d="M81 0H0V94H81V0Z" fill="white"/>
</mask>
<g mask="url(#mask0_13414_21)">
<path d="M27.9584 21.8882C18.8894 26.4874 12.6514 35.8993 12.6514 46.7388C12.6514 53.2568 14.9119 59.2569 18.6818 64.0089V38.8876L52.984 71.6199C62.0856 67.0323 68.3505 57.6018 68.3505 46.74C68.3505 40.2115 66.083 34.2033 62.3026 29.4478V54.5901L27.9584 21.8893V21.8882Z" fill="#F9F9F9"/>
<path d="M3.45262 46.7375C3.45262 33.4473 10.464 21.7853 20.9863 15.2487L18.6826 13.0546L4.9713 0H0V80.5253L13.5714 93.4762H18.6815V76.6738C9.45271 69.9342 3.45262 59.034 3.45262 46.7387V46.7375Z" fill="#E93636"/>
<path d="M80.9996 0H75.8859L62.3018 12.9497V16.7907C71.5398 23.5303 77.5481 34.4352 77.5481 46.7387C77.5481 60.0557 70.5087 71.7375 59.9502 78.2683L62.3006 80.5113L75.8883 93.4773H80.9996V0Z" fill="#F9F9F9"/>
</g>
</g>
<defs>
<clipPath id="clip0_13414_21">
<rect width="81" height="94" fill="white"/>
</clipPath>
</defs>
</svg>
