<svg width="53" height="14" viewBox="0 0 53 14" fill="none" xmlns="http://www.w3.org/2000/svg">
<g clip-path="url(#clip0_5353_7429)">
<path d="M26.1869 7.93073C26.1695 8.00551 26.1429 8.09844 26.105 8.21097C26.0678 8.32277 26.0261 8.44401 25.9814 8.57252L21.5397 8.68069C21.4722 8.9798 21.4093 9.36676 21.4313 9.58819C21.454 9.8089 21.5291 9.99112 21.658 10.1334C21.787 10.2764 21.9758 10.3839 22.2254 10.455C22.4749 10.5269 22.7685 10.5835 23.1629 10.5835C23.5247 10.5835 23.872 10.5756 24.2672 10.5552C24.6677 10.5349 25.0067 10.5051 25.2798 10.4035L25.1114 11.1658C24.9862 11.1905 24.9438 11.2014 24.764 11.229C24.5987 11.2529 24.4015 11.2834 24.1906 11.2979C23.9888 11.3117 23.7901 11.327 23.5558 11.3313C23.3305 11.3357 23.0908 11.3393 22.858 11.3393C22.3748 11.3393 21.9576 11.2921 21.605 11.2006C21.2515 11.1084 20.9709 10.9523 20.7638 10.7316C20.556 10.5109 20.427 10.2184 20.3762 9.85463C20.3254 9.49091 20.3747 9.0328 20.4991 8.48177C20.6235 7.93146 20.7926 7.47408 21.008 7.11035C21.2234 6.74663 21.4821 6.45405 21.7855 6.23262C22.0889 6.01191 22.434 5.85509 22.82 5.76362C23.2069 5.67142 23.6339 5.62568 24.1003 5.62568C24.6555 5.62568 25.0886 5.69538 25.3989 5.83477C25.7091 5.97416 25.9321 6.15421 26.0671 6.37491C26.2021 6.59562 26.2703 6.84391 26.2734 7.11979C26.2757 7.39422 26.2468 7.66502 26.1869 7.93073ZM25.1584 7.94017C25.2062 7.72963 25.235 7.52708 25.2472 7.33323C25.2585 7.13939 25.2274 6.97023 25.1508 6.82358C25.0757 6.67693 24.9423 6.56149 24.7526 6.47655C24.563 6.39161 24.2907 6.34878 23.9373 6.34878C23.5588 6.34878 23.2417 6.38943 22.9861 6.47147C22.7305 6.55351 22.5166 6.67257 22.3445 6.82794C22.1723 6.98475 22.032 7.17497 21.9258 7.40003C21.8188 7.62436 21.7582 7.74923 21.6876 8.02802L25.1584 7.94017Z" fill="#F9F9F9"/>
<path d="M31.2261 8.59139C31.0941 8.46507 30.9068 8.35907 30.6648 8.27268C30.4221 8.18701 30.1248 8.10642 29.7713 8.03092C29.5248 7.983 29.3261 7.93727 29.1752 7.89298C29.0242 7.84797 28.9112 7.79352 28.8384 7.72818C28.7648 7.66284 28.7193 7.58588 28.7034 7.49731C28.6867 7.40801 28.6958 7.29113 28.7277 7.14738C28.7989 6.83229 28.962 6.6203 29.2161 6.51067C29.4694 6.40105 29.8259 6.34587 30.2848 6.34587C30.5905 6.34587 30.8757 6.36693 31.1396 6.40758C31.3861 6.44606 31.5909 6.49398 31.7562 6.55061L31.9269 5.77814C31.7836 5.73821 31.5985 5.70554 31.3588 5.67795C31.0569 5.64383 30.749 5.62495 30.435 5.62495C29.6545 5.62495 29.0379 5.76289 28.5858 6.03732C28.1338 6.31102 27.8562 6.67475 27.7545 7.12705C27.7022 7.35937 27.6847 7.56192 27.7022 7.73326C27.7204 7.9046 27.7833 8.05198 27.8926 8.17467C28.001 8.29809 28.1618 8.40408 28.3757 8.49338C28.5896 8.58195 28.8695 8.66109 29.2161 8.72933C29.5157 8.79104 29.7539 8.84912 29.9306 8.9043C30.1073 8.95948 30.2401 9.02264 30.328 9.09451C30.4168 9.16639 30.4676 9.25569 30.479 9.36168C30.4911 9.4684 30.479 9.60271 30.4418 9.76824C30.3675 10.0971 30.19 10.3215 29.9094 10.4412C29.6287 10.561 29.2396 10.6206 28.7405 10.6206C28.5957 10.6206 28.4379 10.6155 28.2673 10.6053C28.0966 10.5944 27.929 10.5799 27.7651 10.5589C27.6013 10.5378 27.4435 10.5146 27.2926 10.487C27.1417 10.4601 27.0097 10.4311 26.9028 10.4035L26.7344 11.1658C26.8186 11.1861 26.9323 11.2086 27.0757 11.2326C27.219 11.2565 27.3776 11.2754 27.552 11.2892C27.7265 11.303 27.9024 11.3146 28.0814 11.3248C28.2604 11.3357 28.4296 11.3408 28.5904 11.3408C29.3951 11.3408 30.0375 11.2123 30.5177 10.9553C30.9978 10.6982 31.3012 10.2924 31.4263 9.73775C31.487 9.47058 31.5014 9.24407 31.4711 9.05894C31.44 8.87453 31.3581 8.71844 31.2261 8.59139Z" fill="#F9F9F9"/>
<path d="M33.6616 5.62568H34.7061L33.4485 11.3393H32.4033L33.6616 5.62568Z" fill="#F9F9F9"/>
<path d="M34.222 3.08177H35.2672L34.9798 4.38712H33.9346L34.222 3.08177Z" fill="#F9F9F9"/>
<path d="M40.8086 5.62568L40.6198 6.48163C40.2762 5.96182 39.6664 5.62568 38.8935 5.62568H38.7023C38.1555 5.62568 37.6905 5.70627 37.309 5.86671C36.9275 6.02643 36.6029 6.24351 36.3367 6.51648C36.0704 6.79019 35.8581 7.1089 35.6995 7.47335C35.541 7.83781 35.4166 8.22404 35.3256 8.63205C35.224 9.08435 35.2126 9.22665 35.2065 9.59473C35.2005 9.96281 35.2702 10.2779 35.4166 10.5407C35.563 10.8028 35.7928 11.0075 36.1061 11.1527C36.4193 11.2987 36.8524 11.3393 37.4 11.3393C38.0273 11.3393 38.5241 11.25 38.8889 11.0569C38.9291 11.0358 38.9678 11.0083 39.0073 10.985L39.1825 10.1871C39.0459 10.2772 38.898 10.3534 38.7319 10.4115C38.4521 10.5102 38.1153 10.5589 37.7209 10.5589C37.3348 10.5589 37.0367 10.5255 36.8342 10.4093C36.6309 10.2931 36.4914 10.1341 36.4163 9.93377C36.3404 9.73339 36.3147 9.49817 36.3389 9.22882C36.3632 8.95875 36.3678 8.93842 36.4368 8.63205C36.5005 8.34818 36.5786 8.07085 36.6711 7.8015C36.7637 7.53143 36.8934 7.29476 37.0595 7.09075C37.2264 6.88747 37.4372 6.72267 37.6951 6.59925C37.9522 6.47583 38.2784 6.41339 38.672 6.41339C39.0664 6.41339 39.3804 6.46639 39.614 6.57166C39.8484 6.67693 40.0198 6.82431 40.1306 7.01452C40.2405 7.20401 40.2959 7.43705 40.2936 7.71366C40.2914 7.98228 40.2269 8.27195 40.1563 8.59502L40.1556 8.59865L40.151 8.61608C40.1503 8.62043 40.1495 8.62479 40.1488 8.62987C40.1389 8.67053 40.1321 8.70828 40.1222 8.74821L39.7013 10.6641L39.5989 11.1288C39.4464 11.8061 39.1476 12.2867 38.7319 12.5786C38.3163 12.8697 37.7467 13.0156 37.0223 13.0156C36.4512 13.0156 35.4326 12.8174 34.9524 12.7107L34.7734 13.5086C35.0647 13.5892 35.7185 13.7518 35.9938 13.7808C36.2692 13.8099 36.5475 13.8244 36.8289 13.8244C37.931 13.8244 38.7896 13.595 39.4039 13.1354C40.0175 12.6766 40.4271 12.0384 40.6099 11.2224L41.8485 5.62568H40.8086Z" fill="#F9F9F9"/>
<path d="M48.1852 6.78946C48.1685 6.55423 48.098 6.35023 47.9713 6.17671C47.8447 6.00393 47.6512 5.86962 47.3911 5.77378C47.1309 5.67868 46.7881 5.62568 46.3618 5.62568C46.1608 5.62568 45.953 5.64456 45.7414 5.67432C45.5298 5.70409 45.3235 5.75346 45.1232 5.82315C45.08 5.83912 45.0375 5.85582 44.9943 5.87397C44.6682 5.99376 44.3397 6.19559 44.0781 6.42573L44.8138 3.08177H43.7731L41.9551 11.3393H42.9957L43.7936 7.71221C43.9415 7.44722 44.1266 7.1982 44.3026 7.04356C44.4778 6.88892 44.6606 6.76986 44.8532 6.68491C45.0444 6.6007 45.2416 6.54552 45.4456 6.51939C45.6481 6.49398 45.8544 6.48091 46.0637 6.48091C46.3209 6.48091 46.5249 6.51358 46.6751 6.57965C46.8253 6.64644 46.9337 6.74009 46.999 6.86206C47.0642 6.9833 47.093 7.13431 47.0854 7.31508C47.0778 7.49513 47.0316 7.69986 46.9807 7.9271L46.2291 11.3393H47.269L48.098 7.57064C48.1617 7.28314 48.2011 7.02541 48.1852 6.78946Z" fill="#F9F9F9"/>
<path d="M51.1751 10.5284C51.0636 10.5393 50.9362 10.5451 50.7913 10.5451C50.5895 10.5451 50.4325 10.5284 50.3195 10.4957C50.2065 10.4623 50.1246 10.4035 50.0753 10.3193C50.0252 10.2343 50.0048 10.1189 50.0139 9.97152C50.0222 9.82487 50.0525 9.63393 50.1049 9.39798L50.7147 6.61377H52.3318L52.394 6.33498L52.5502 5.62713V5.62568L50.9339 5.62641L51.4937 3.08177H50.4591L49.0551 9.45388C48.9679 9.84375 48.9315 10.1617 48.9452 10.4078C48.9588 10.654 49.0286 10.8471 49.1545 10.9865C49.2804 11.1266 49.4609 11.2202 49.6953 11.2674C49.9297 11.3154 50.2285 11.3393 50.5903 11.3393C50.7268 11.3393 50.8527 11.3335 50.968 11.3226C51.0833 11.3117 51.1713 11.303 51.3033 11.2885L51.4808 10.4834C51.3624 10.5059 51.2858 10.5175 51.1751 10.5284Z" fill="#F9F9F9"/>
<path d="M2.28644 2.55106L0.351562 11.3393H2.23031L3.70327 4.65937L2.28644 2.55106Z" fill="#F9F9F9"/>
<path d="M12.5286 5.41441L11.2256 11.34L13.1074 11.3408L14.8852 3.25601L12.5286 5.41441Z" fill="#F9F9F9"/>
<path d="M14.5696 0.124046L8.27423 5.8914C8.1104 6.04168 7.84342 6.01119 7.72054 5.82896L5.38899 2.36231C5.29418 2.22146 5.1311 2.13652 4.95589 2.13652H2.61599H2.61523L2.66605 2.21203L7.30793 9.12138C7.3944 9.24988 7.58098 9.27093 7.69627 9.16494L17.5648 0.124046H14.5696Z" fill="#F9F9F9"/>
<path d="M16.0132 5.62568H17.0644L15.8061 11.3393H14.7549L16.0132 5.62568Z" fill="#F9F9F9"/>
<path d="M16.5728 3.08177H17.6241L17.3374 4.38712H16.2861L16.5728 3.08177Z" fill="#F9F9F9"/>
<path d="M19.2514 3.08177H20.3088L18.4907 11.3386H17.4326L19.2514 3.08177Z" fill="#F9F9F9"/>
</g>
<defs>
<clipPath id="clip0_5353_7429">
<rect width="53" height="14" fill="white"/>
</clipPath>
</defs>
</svg>
