<svg width="86" height="31" viewBox="0 0 86 31" fill="none" xmlns="http://www.w3.org/2000/svg">
<g clip-path="url(#clip0_12460_309)">
<path d="M73.53 17.38L42.67 28.49L25.62 22.35L6.16 15.34L6.55 15.2L42.66 2.21L78.8 15.2L79.19 15.34L73.52 17.38H73.53ZM84.98 15.2L82.63 14.36L43.02 0.12L42.67 0L42.32 0.12L2.73 14.36L0.39 15.2L0 15.34L2.73 16.32L21.18 22.96L42.32 30.57L42.67 30.7L43.02 30.57L81.22 16.83L82.64 16.32L85.37 15.33L84.99 15.19L84.98 15.2Z" fill="#F9F9F9"/>
<path d="M42.6604 3.64999L10.5304 15.21L10.1504 15.34L10.6304 15.21L46.1804 4.91999L42.6604 3.64999Z" fill="#F9F9F9"/>
<path d="M50.3291 6.40001L46.8091 5.14001L19.6791 15.2L14.7891 17.02L20.8591 15.2L50.3291 6.40001Z" fill="#F9F9F9"/>
<path d="M54.4695 7.89L50.9595 6.63L28.5495 15.2L19.4395 18.69L30.7495 15.2L54.4695 7.89Z" fill="#F9F9F9"/>
<path d="M58.6201 9.39L55.1001 8.12L37.1501 15.2L24.0801 20.36L40.3101 15.2L58.6201 9.39Z" fill="#F9F9F9"/>
<path d="M62.7705 10.88L59.2405 9.60999L45.5005 15.21L29.1005 21.88L28.7305 22.03L29.2405 21.87L49.5605 15.21L62.7705 10.88Z" fill="#F9F9F9"/>
<path d="M58.5191 15.21L66.9091 12.37L63.3891 11.1L53.6191 15.21L41.2091 20.42L33.3691 23.71L44.0391 20.1L58.5191 15.21Z" fill="#F9F9F9"/>
<path d="M67.1895 15.21L71.0495 13.86L67.5295 12.59L61.5095 15.21L52.1695 19.25L38.0195 25.38L56.9495 18.78L67.1895 15.21Z" fill="#F9F9F9"/>
<path d="M71.6802 14.08L69.1702 15.2L62.2402 18.3L42.6602 27.06L68.4802 17.76L75.2002 15.35L74.8002 15.2L71.6802 14.08Z" fill="#F9F9F9"/>
</g>
<defs>
<clipPath id="clip0_12460_309">
<rect width="86" height="31" fill="white"/>
</clipPath>
</defs>
</svg>
